<?xml version="1.0" encoding="UTF-8" standalone="no"?>
<!-- Created with Inkscape (http://www.inkscape.org/) -->

<svg
   xmlns:dc="http://purl.org/dc/elements/1.1/"
   xmlns:cc="http://creativecommons.org/ns#"
   xmlns:rdf="http://www.w3.org/1999/02/22-rdf-syntax-ns#"
   xmlns:svg="http://www.w3.org/2000/svg"
   xmlns="http://www.w3.org/2000/svg"
   xmlns:sodipodi="http://sodipodi.sourceforge.net/DTD/sodipodi-0.dtd"
   xmlns:inkscape="http://www.inkscape.org/namespaces/inkscape"
   width="744.09448819"
   height="1052.3622047"
   id="svg3142"
   version="1.1"
   inkscape:version="0.48.5 r10040"
   sodipodi:docname="ridon-logo.svg">
  <defs
     id="defs3144" />
  <sodipodi:namedview
     id="base"
     pagecolor="#ffffff"
     bordercolor="#666666"
     borderopacity="1.0"
     inkscape:pageopacity="0.0"
     inkscape:pageshadow="2"
     inkscape:zoom="1.4"
     inkscape:cx="280.86039"
     inkscape:cy="705.16512"
     inkscape:document-units="px"
     inkscape:current-layer="layer1"
     showgrid="false"
     inkscape:window-width="1366"
     inkscape:window-height="713"
     inkscape:window-x="0"
     inkscape:window-y="24"
     inkscape:window-maximized="1" />
  <metadata
     id="metadata3147">
    <rdf:RDF>
      <cc:Work
         rdf:about="">
        <dc:format>image/svg+xml</dc:format>
        <dc:type
           rdf:resource="http://purl.org/dc/dcmitype/StillImage" />
        <dc:title />
      </cc:Work>
    </rdf:RDF>
  </metadata>
  <g
     inkscape:label="Layer 1"
     inkscape:groupmode="layer"
     id="layer1">
    <rect
       style="fill:#000000;fill-opacity:1;stroke:none"
       id="rect3232"
       width="228.57143"
       height="248.57143"
       x="357.71429"
       y="85.219337"
       inkscape:export-filename="/home/cho2/Gambar/ridon.png"
       inkscape:export-xdpi="90"
       inkscape:export-ydpi="90" />
    <path
       inkscape:connector-curvature="0"
       id="path3234"
       d="m 235.86327,97.422534 c -32.14479,0.1635 -63.58569,15.806696 -82.71879,44.406296 -11.7908,17.6247 -17.2037,37.6047 -16.8437,57.31252 l 199.96869,0 c 0.538,-32.82452 -15.0595,-65.23192 -44.375,-84.84382 l -3.2812,-2.0937 c -16.4506,-10.0985 -34.7175,-14.872996 -52.75,-14.781296 z m -40.53129,56.468796 c 2.3922,-0.068 4.8149,0.5336 7,1.875 l 0.4375,0.25 c 5.8438,3.9094 7.4095,11.8125 3.5,17.6562 -3.9094,5.8438 -11.8124,7.4407 -17.6562,3.5313 -5.8438,-3.9095 -7.4095,-11.8438 -3.5,-17.6875 2.3762,-3.5519 6.2318,-5.5111 10.2187,-5.625 z m 76.37499,0 c 2.3922,-0.068 4.8461,0.5336 7.0313,1.875 l 0.4062,0.25 c 5.8438,3.9094 7.4095,11.8125 3.5,17.6562 -3.9094,5.8438 -11.8124,7.4407 -17.6562,3.5313 -5.8438,-3.9095 -7.4095,-11.8438 -3.5,-17.6875 2.3762,-3.5519 6.2318,-5.5111 10.2187,-5.625 z"
       style="fill:#fb8b00;fill-opacity:1;stroke:none"
       inkscape:export-filename="/home/cho2/Gambar/ridon.png"
       inkscape:export-xdpi="90"
       inkscape:export-ydpi="90" />
    <path
       style="fill:#fb8b00;fill-opacity:1"
       d="m 470.14898,97.422534 c -32.14481,0.1635 -63.58571,15.806696 -82.71871,44.406296 -11.7909,17.6247 -17.2038,37.6047 -16.8438,57.31252 l 199.96881,0 c 0.5379,-32.82452 -15.0596,-65.23192 -44.375,-84.84382 l -3.2813,-2.0937 c -16.4506,-10.0985 -34.7175,-14.872996 -52.75,-14.781296 z m -40.53121,56.468796 c 2.3921,-0.068 4.8148,0.5336 7,1.875 l 0.4375,0.25 c 5.84371,3.9094 7.40941,11.8125 3.5,17.6562 -3.9095,5.8438 -11.8125,7.4407 -17.6563,3.5313 -5.8438,-3.9095 -7.4095,-11.8438 -3.5,-17.6875 2.3762,-3.5519 6.2318,-5.5111 10.2188,-5.625 z m 76.37501,0 c 2.3921,-0.068 4.846,0.5336 7.0312,1.875 l 0.4063,0.25 c 5.8437,3.9094 7.4094,11.8125 3.5,17.6562 -3.9095,5.8438 -11.8125,7.4407 -17.6563,3.5313 -5.8438,-3.9095 -7.4094,-11.8438 -3.5,-17.6875 2.3762,-3.5519 6.2318,-5.5111 10.2188,-5.625 z"
       id="path3236"
       inkscape:connector-curvature="0"
       inkscape:export-filename="/home/cho2/Gambar/ridon.png"
       inkscape:export-xdpi="90"
       inkscape:export-ydpi="90" />
    <g
       style="font-size:55.95628357px;font-style:normal;font-weight:normal;line-height:125%;letter-spacing:0px;word-spacing:0px;fill:#ffffff;fill-opacity:1;stroke:none;font-family:Sans"
       id="text3238">
      <path
         d="m 401.6081,269.49125 0,17.48634 8.74317,0 c 2.42257,2e-5 4.48085,-0.84697 6.17486,-2.54099 1.71218,-1.71217 2.56828,-3.77957 2.56831,-6.20218 -3e-5,-2.42256 -0.85613,-4.48084 -2.56831,-6.17487 -1.69401,-1.71216 -3.75229,-2.56826 -6.17486,-2.5683 l -8.74317,0 m -2.1858,-4.37159 10.92897,0 c 3.62475,5e-5 6.71218,1.2842 9.26229,3.85246 2.56828,2.55013 3.85243,5.63756 3.85246,9.2623 -3e-5,3.6248 -1.27507,6.71223 -3.82514,9.26229 -1.18399,1.18399 -2.46814,2.08563 -3.85246,2.70492 l 9.5082,15.2459 c 0.23677,0.34609 0.35516,0.74682 0.35519,1.20219 -3e-5,0.60109 -0.21861,1.12022 -0.65573,1.55737 -0.41898,0.41895 -0.929,0.62842 -1.53006,0.62842 -0.78327,0 -1.42079,-0.37341 -1.91257,-1.12022 l -10.2459,-16.39344 c -0.30967,0.0182 -0.62843,0.0273 -0.95628,0.0273 l -8.74317,0 0,15.30055 c -10e-6,0.60109 -0.21859,1.12022 -0.65574,1.55737 -0.41895,0.41895 -0.92897,0.62842 -1.53006,0.62842 -0.60109,0 -1.12022,-0.20947 -1.55737,-0.62842 -0.41895,-0.43715 -0.62842,-0.95628 -0.62842,-1.55737 l 0,-39.34426 c 0,-0.60105 0.20947,-1.11107 0.62842,-1.53006 0.43715,-0.43711 0.95628,-0.65569 1.55737,-0.65574"
         style="font-variant:normal;font-stretch:normal;fill:#ffffff;font-family:Comfortaa;-inkscape-font-specification:Comfortaa"
         id="path2994" />
      <path
         d="m 437.12722,271.67704 c -1e-5,0.74685 -0.27323,1.39348 -0.81967,1.93989 -0.52824,0.52827 -1.16576,0.79239 -1.91257,0.79235 -0.74682,4e-5 -1.39345,-0.26408 -1.93989,-0.79235 -0.52824,-0.54641 -0.79235,-1.19304 -0.79235,-1.93989 0,-0.74677 0.26411,-1.3843 0.79235,-1.91257 0.54644,-0.54641 1.19307,-0.81963 1.93989,-0.81967 0.74681,4e-5 1.38433,0.27326 1.91257,0.81967 0.54644,0.52827 0.81966,1.1658 0.81967,1.91257 m -4.91803,8.74317 c -10e-6,-0.60106 0.20947,-1.11108 0.62841,-1.53005 0.43716,-0.43713 0.95628,-0.65571 1.55738,-0.65574 0.60109,3e-5 1.1111,0.21861 1.53006,0.65574 0.43715,0.41897 0.65573,0.92899 0.65573,1.53005 l 0,26.22951 c 0,0.60109 -0.21858,1.12022 -0.65573,1.55737 -0.41896,0.41895 -0.92897,0.62842 -1.53006,0.62842 -0.6011,0 -1.12022,-0.20947 -1.55738,-0.62842 -0.41894,-0.43715 -0.62842,-0.95628 -0.62841,-1.55737 l 0,-26.22951"
         style="fill:#ffffff"
         id="path2996" />
      <path
         d="m 469.36766,293.53496 c -3e-5,-3.02366 -1.0656,-5.60107 -3.19672,-7.73224 -2.13117,-2.13112 -4.70858,-3.19669 -7.73224,-3.19672 -3.0237,3e-5 -5.60111,1.0656 -7.73224,3.19672 -2.13116,2.13117 -3.19673,4.70858 -3.19672,7.73224 -1e-5,3.0237 1.06556,5.60111 3.19672,7.73224 2.13113,2.13116 4.70854,3.19673 7.73224,3.19673 3.02366,0 5.60107,-1.06557 7.73224,-3.19673 2.13112,-2.13113 3.19669,-4.70854 3.19672,-7.73224 m 0,-26.28415 c -3e-5,-0.60105 0.20944,-1.11107 0.62841,-1.53005 0.43713,-0.43712 0.95626,-0.6557 1.55738,-0.65574 0.60106,4e-5 1.11108,0.21862 1.53006,0.65574 0.43712,0.41898 0.6557,0.929 0.65573,1.53005 l 0,26.28415 c -3e-5,4.22588 -1.49365,7.83243 -4.48087,10.81968 -2.98728,2.98725 -6.59383,4.48087 -10.81967,4.48087 -4.22588,0 -7.83244,-1.49362 -10.81968,-4.48087 -2.98725,-2.98725 -4.48087,-6.5938 -4.48087,-10.81968 0,-4.22584 1.49362,-7.8324 4.48087,-10.81967 2.98724,-2.98722 6.5938,-4.48084 10.81968,-4.48087 4.22584,3e-5 7.83239,1.49365 10.81967,4.48087 0.0364,0.0365 0.0728,0.0729 0.10929,0.10929 l 0,-15.57377"
         style="fill:#ffffff"
         id="path2998" />
      <path
         d="m 508.71192,293.53496 c -3e-5,4.22588 -1.49366,7.83243 -4.48088,10.81968 -2.98727,2.98725 -6.59382,4.48087 -10.81967,4.48087 -4.22588,0 -7.83243,-1.49362 -10.81967,-4.48087 -2.98725,-2.98725 -4.48088,-6.5938 -4.48087,-10.81968 -1e-5,-4.22584 1.49362,-7.8324 4.48087,-10.81967 2.98724,-2.98722 6.59379,-4.48084 10.81967,-4.48087 4.22585,3e-5 7.8324,1.49365 10.81967,4.48087 2.98722,2.98727 4.48085,6.59383 4.48088,10.81967 M 493.41137,282.606 c -3.02369,3e-5 -5.6011,1.0656 -7.73224,3.19672 -2.13115,2.13117 -3.19673,4.70858 -3.19672,7.73224 -1e-5,3.0237 1.06557,5.60111 3.19672,7.73224 2.13114,2.13116 4.70855,3.19673 7.73224,3.19673 3.02366,0 5.60107,-1.06557 7.73224,-3.19673 2.13112,-2.13113 3.1967,-4.70854 3.19672,-7.73224 -2e-5,-3.02366 -1.0656,-5.60107 -3.19672,-7.73224 -2.13117,-2.13112 -4.70858,-3.19669 -7.73224,-3.19672"
         style="font-variant:normal;font-stretch:normal;fill:#ffffff;font-family:Comfortaa;-inkscape-font-specification:Comfortaa"
         id="path3000" />
      <path
         d="m 513.08351,280.42021 c 0,-0.60106 0.20947,-1.11108 0.62842,-1.53005 0.43715,-0.43713 0.95628,-0.65571 1.55737,-0.65574 0.60109,3e-5 1.11111,0.21861 1.53006,0.65574 0.43715,0.41897 0.65573,0.92899 0.65574,1.53005 l 0,1.77596 c 2.73223,-2.64114 6.01091,-3.96172 9.83606,-3.96175 3.91619,3e-5 7.25863,1.39347 10.02733,4.18033 2.78685,2.76869 4.18029,6.11113 4.18032,10.02732 l 0,14.20765 c -3e-5,0.60109 -0.21861,1.12022 -0.65573,1.55737 -0.41898,0.41895 -0.929,0.62842 -1.53006,0.62842 -0.60112,0 -1.12025,-0.20947 -1.55738,-0.62842 -0.41897,-0.43715 -0.62844,-0.95628 -0.62841,-1.55737 l 0,-14.20765 c -3e-5,-2.71401 -0.96542,-5.0273 -2.89618,-6.93989 -1.91259,-1.93076 -4.22588,-2.89615 -6.93989,-2.89618 -2.71404,3e-5 -5.03644,0.96542 -6.96721,2.89618 -1.91258,1.91259 -2.86886,4.22588 -2.86885,6.93989 l 0,14.20765 c -10e-6,0.60109 -0.21859,1.12022 -0.65574,1.55737 -0.41895,0.41895 -0.92897,0.62842 -1.53006,0.62842 -0.60109,0 -1.12022,-0.20947 -1.55737,-0.62842 -0.41895,-0.43715 -0.62842,-0.95628 -0.62842,-1.55737 l 0,-26.22951"
         style="font-variant:normal;font-stretch:normal;fill:#ffffff;font-family:Comfortaa;-inkscape-font-specification:Comfortaa"
         id="path3002" />
    </g>
    <g
       style="font-size:55.95628357px;font-style:normal;font-weight:normal;line-height:125%;letter-spacing:0px;word-spacing:0px;fill:#000000;fill-opacity:1;stroke:none;font-family:Sans"
       id="text3244">
      <path
         d="m 165.6081,269.49125 0,17.48634 8.74317,0 c 2.42257,2e-5 4.48085,-0.84697 6.17486,-2.54099 1.71218,-1.71217 2.56828,-3.77957 2.56831,-6.20218 -3e-5,-2.42256 -0.85613,-4.48084 -2.56831,-6.17487 -1.69401,-1.71216 -3.75229,-2.56826 -6.17486,-2.5683 l -8.74317,0 m -2.1858,-4.37159 10.92897,0 c 3.62475,5e-5 6.71218,1.2842 9.26229,3.85246 2.56828,2.55013 3.85243,5.63756 3.85246,9.2623 -3e-5,3.6248 -1.27507,6.71223 -3.82514,9.26229 -1.18399,1.18399 -2.46814,2.08563 -3.85246,2.70492 l 9.5082,15.2459 c 0.23677,0.34609 0.35516,0.74682 0.35519,1.20219 -3e-5,0.60109 -0.21861,1.12022 -0.65573,1.55737 -0.41898,0.41895 -0.929,0.62842 -1.53006,0.62842 -0.78327,0 -1.42079,-0.37341 -1.91257,-1.12022 l -10.2459,-16.39344 c -0.30967,0.0182 -0.62843,0.0273 -0.95628,0.0273 l -8.74317,0 0,15.30055 c -1e-5,0.60109 -0.21859,1.12022 -0.65574,1.55737 -0.41895,0.41895 -0.92897,0.62842 -1.53006,0.62842 -0.60109,0 -1.12022,-0.20947 -1.55737,-0.62842 -0.41895,-0.43715 -0.62842,-0.95628 -0.62842,-1.55737 l 0,-39.34426 c 0,-0.60105 0.20947,-1.11107 0.62842,-1.53006 0.43715,-0.43711 0.95628,-0.65569 1.55737,-0.65574"
         style="font-variant:normal;font-stretch:normal;fill:#000000;font-family:Comfortaa;-inkscape-font-specification:Comfortaa"
         id="path3005" />
      <path
         d="m 201.12722,271.67704 c -1e-5,0.74685 -0.27323,1.39348 -0.81967,1.93989 -0.52824,0.52827 -1.16576,0.79239 -1.91257,0.79235 -0.74682,4e-5 -1.39345,-0.26408 -1.93989,-0.79235 -0.52824,-0.54641 -0.79235,-1.19304 -0.79235,-1.93989 0,-0.74677 0.26411,-1.3843 0.79235,-1.91257 0.54644,-0.54641 1.19307,-0.81963 1.93989,-0.81967 0.74681,4e-5 1.38433,0.27326 1.91257,0.81967 0.54644,0.52827 0.81966,1.1658 0.81967,1.91257 m -4.91803,8.74317 c -1e-5,-0.60106 0.20947,-1.11108 0.62841,-1.53005 0.43716,-0.43713 0.95628,-0.65571 1.55738,-0.65574 0.60109,3e-5 1.1111,0.21861 1.53006,0.65574 0.43715,0.41897 0.65573,0.92899 0.65573,1.53005 l 0,26.22951 c 0,0.60109 -0.21858,1.12022 -0.65573,1.55737 -0.41896,0.41895 -0.92897,0.62842 -1.53006,0.62842 -0.6011,0 -1.12022,-0.20947 -1.55738,-0.62842 -0.41894,-0.43715 -0.62842,-0.95628 -0.62841,-1.55737 l 0,-26.22951"
         style="fill:#000000;-inkscape-font-specification:Comfortaa"
         id="path3007" />
      <path
         d="m 233.36766,293.53496 c -3e-5,-3.02366 -1.0656,-5.60107 -3.19672,-7.73224 -2.13117,-2.13112 -4.70858,-3.19669 -7.73224,-3.19672 -3.0237,3e-5 -5.60111,1.0656 -7.73224,3.19672 -2.13116,2.13117 -3.19673,4.70858 -3.19672,7.73224 -1e-5,3.0237 1.06556,5.60111 3.19672,7.73224 2.13113,2.13116 4.70854,3.19673 7.73224,3.19673 3.02366,0 5.60107,-1.06557 7.73224,-3.19673 2.13112,-2.13113 3.19669,-4.70854 3.19672,-7.73224 m 0,-26.28415 c -3e-5,-0.60105 0.20944,-1.11107 0.62841,-1.53005 0.43713,-0.43712 0.95626,-0.6557 1.55738,-0.65574 0.60106,4e-5 1.11108,0.21862 1.53006,0.65574 0.43712,0.41898 0.6557,0.929 0.65573,1.53005 l 0,26.28415 c -3e-5,4.22588 -1.49365,7.83243 -4.48087,10.81968 -2.98728,2.98725 -6.59383,4.48087 -10.81967,4.48087 -4.22588,0 -7.83244,-1.49362 -10.81968,-4.48087 -2.98725,-2.98725 -4.48087,-6.5938 -4.48087,-10.81968 0,-4.22584 1.49362,-7.8324 4.48087,-10.81967 2.98724,-2.98722 6.5938,-4.48084 10.81968,-4.48087 4.22584,3e-5 7.83239,1.49365 10.81967,4.48087 0.0364,0.0365 0.0728,0.0729 0.10929,0.10929 l 0,-15.57377"
         style="fill:#000000;-inkscape-font-specification:Comfortaa"
         id="path3009" />
      <path
         d="m 272.71192,293.53496 c -3e-5,4.22588 -1.49366,7.83243 -4.48088,10.81968 -2.98727,2.98725 -6.59382,4.48087 -10.81967,4.48087 -4.22588,0 -7.83243,-1.49362 -10.81967,-4.48087 -2.98725,-2.98725 -4.48088,-6.5938 -4.48087,-10.81968 -1e-5,-4.22584 1.49362,-7.8324 4.48087,-10.81967 2.98724,-2.98722 6.59379,-4.48084 10.81967,-4.48087 4.22585,3e-5 7.8324,1.49365 10.81967,4.48087 2.98722,2.98727 4.48085,6.59383 4.48088,10.81967 M 257.41137,282.606 c -3.02369,3e-5 -5.6011,1.0656 -7.73224,3.19672 -2.13115,2.13117 -3.19673,4.70858 -3.19672,7.73224 -10e-6,3.0237 1.06557,5.60111 3.19672,7.73224 2.13114,2.13116 4.70855,3.19673 7.73224,3.19673 3.02366,0 5.60107,-1.06557 7.73224,-3.19673 2.13112,-2.13113 3.1967,-4.70854 3.19672,-7.73224 -2e-5,-3.02366 -1.0656,-5.60107 -3.19672,-7.73224 -2.13117,-2.13112 -4.70858,-3.19669 -7.73224,-3.19672"
         style="font-variant:normal;font-stretch:normal;fill:#000000;font-family:Comfortaa;-inkscape-font-specification:Comfortaa"
         id="path3011" />
      <path
         d="m 277.08351,280.42021 c 0,-0.60106 0.20947,-1.11108 0.62842,-1.53005 0.43715,-0.43713 0.95628,-0.65571 1.55737,-0.65574 0.60109,3e-5 1.11111,0.21861 1.53006,0.65574 0.43715,0.41897 0.65573,0.92899 0.65574,1.53005 l 0,1.77596 c 2.73223,-2.64114 6.01091,-3.96172 9.83606,-3.96175 3.91619,3e-5 7.25863,1.39347 10.02733,4.18033 2.78685,2.76869 4.18029,6.11113 4.18032,10.02732 l 0,14.20765 c -3e-5,0.60109 -0.21861,1.12022 -0.65573,1.55737 -0.41898,0.41895 -0.929,0.62842 -1.53006,0.62842 -0.60112,0 -1.12025,-0.20947 -1.55738,-0.62842 -0.41897,-0.43715 -0.62844,-0.95628 -0.62841,-1.55737 l 0,-14.20765 c -3e-5,-2.71401 -0.96542,-5.0273 -2.89618,-6.93989 -1.91259,-1.93076 -4.22588,-2.89615 -6.93989,-2.89618 -2.71404,3e-5 -5.03644,0.96542 -6.96721,2.89618 -1.91258,1.91259 -2.86886,4.22588 -2.86885,6.93989 l 0,14.20765 c -1e-5,0.60109 -0.21859,1.12022 -0.65574,1.55737 -0.41895,0.41895 -0.92897,0.62842 -1.53006,0.62842 -0.60109,0 -1.12022,-0.20947 -1.55737,-0.62842 -0.41895,-0.43715 -0.62842,-0.95628 -0.62842,-1.55737 l 0,-26.22951"
         style="font-variant:normal;font-stretch:normal;fill:#000000;font-family:Comfortaa;-inkscape-font-specification:Comfortaa"
         id="path3013" />
    </g>
    <path
       id="path3250"
       d="m 133.81568,246.95255 c 1.0011,-0.9211 5.7577,-4.7986 10.5702,-8.6166 4.8125,-3.8181 13.2585,-13.3761 18.7691,-21.2402 22.1143,-31.5594 42.8788,-40.77782 64.5444,-28.6542 l 6.51629,3.6464 6.1656,-3.7494 c 10.5312,-6.4046 19.9647,-6.76 32.1008,-1.2093 12.9619,5.9284 18.1533,10.748 30.4811,28.2981 9.0287,12.8536 17.9318,22.1626 28.3556,29.6483 4.4425,3.1902 4.1662,3.2344 -13.6673,2.1842 -40.4357,-2.3812 -56.3892,-7.294 -71.6326,-22.0583 -5.5502,-5.3758 -11.2826,-9.7742 -12.73859,-9.7742 -1.4558,0 -5.432,3.2534 -8.8356,7.2298 -7.9513,9.2892 -28.5501,19.4296 -44.2151,21.7661 -18.7976,2.8038 -48.4696,4.4208 -46.4139,2.5293 z"
       style="fill:#050505"
       inkscape:connector-curvature="0"
       inkscape:export-filename="/home/cho2/Gambar/ridon.png"
       inkscape:export-xdpi="90"
       inkscape:export-ydpi="90" />
    <path
       inkscape:connector-curvature="0"
       style="fill:#ffffff;stroke:#ffffff;stroke-width:2;stroke-miterlimit:4;stroke-dasharray:none"
       d="m 369.22677,246.95255 c 1.001,-0.9211 5.7577,-4.7986 10.5702,-8.6166 4.8124,-3.8181 13.2585,-13.3761 18.769,-21.2402 22.1144,-31.5594 42.8789,-40.77782 64.54441,-28.6542 l 6.5164,3.6464 6.1656,-3.7494 c 10.5312,-6.4046 19.9647,-6.76 32.1008,-1.2093 12.9619,5.9284 18.1533,10.748 30.4811,28.2981 9.0287,12.8536 17.9318,22.1626 28.3556,29.6483 4.4425,3.1902 4.1662,3.2344 -13.6673,2.1842 -40.4357,-2.3812 -56.3892,-7.294 -71.6326,-22.0583 -5.5502,-5.3758 -11.2826,-9.7742 -12.7386,-9.7742 -1.4559,0 -5.4321,3.2534 -8.8356,7.2298 -7.9513,9.2892 -28.55011,19.4296 -44.21511,21.7661 -18.7976,2.8038 -48.4696,4.4208 -46.4139,2.5293 z"
       id="path3252"
       inkscape:export-xdpi="90"
       inkscape:export-ydpi="90"
       inkscape:export-filename="/home/cho2/Gambar/ridon.png" />
  </g>
</svg>
