<?xml version="1.0" encoding="UTF-8" standalone="no"?>
<!-- Created with Inkscape (http://www.inkscape.org/) -->

<svg
   xmlns:dc="http://purl.org/dc/elements/1.1/"
   xmlns:cc="http://creativecommons.org/ns#"
   xmlns:rdf="http://www.w3.org/1999/02/22-rdf-syntax-ns#"
   xmlns:svg="http://www.w3.org/2000/svg"
   xmlns="http://www.w3.org/2000/svg"
   xmlns:sodipodi="http://sodipodi.sourceforge.net/DTD/sodipodi-0.dtd"
   xmlns:inkscape="http://www.inkscape.org/namespaces/inkscape"
   width="210mm"
   height="297mm"
   viewBox="0 0 744.09448819 1052.3622047"
   id="svg4201"
   version="1.1"
   inkscape:version="0.91 r13725"
   sodipodi:docname="drawing.svg">
  <defs
     id="defs4203" />
  <sodipodi:namedview
     id="base"
     pagecolor="#ffffff"
     bordercolor="#666666"
     borderopacity="1.0"
     inkscape:pageopacity="0.0"
     inkscape:pageshadow="2"
     inkscape:zoom="0.35"
     inkscape:cx="81.023481"
     inkscape:cy="403.37805"
     inkscape:document-units="px"
     inkscape:current-layer="layer1"
     showgrid="false"
     inkscape:window-width="1366"
     inkscape:window-height="715"
     inkscape:window-x="0"
     inkscape:window-y="0"
     inkscape:window-maximized="1" />
  <metadata
     id="metadata4206">
    <rdf:RDF>
      <cc:Work
         rdf:about="">
        <dc:format>image/svg+xml</dc:format>
        <dc:type
           rdf:resource="http://purl.org/dc/dcmitype/StillImage" />
        <dc:title></dc:title>
      </cc:Work>
    </rdf:RDF>
  </metadata>
  <g
     inkscape:label="Layer 1"
     inkscape:groupmode="layer"
     id="layer1">
    <g
       id="g5955"
       transform="matrix(0.99570406,0,0,0.99570406,80.891673,-164.23823)">
      <path
         id="path5948"
         d="M 498.86914,211.12109 C 436.1095,211.12183 385.073,262.15833 385.07227,324.91797 l 0,0.01 0,0.01 c 0.0474,18.79886 4.90397,37.20805 13.82031,53.71875 l -16.92774,63.16992 63.1211,-16.91601 c 16.52722,8.91956 34.95449,13.77404 53.76953,13.80859 l 0.008,0 0.006,0 c 62.7619,8.7e-4 113.80165,-51.03888 113.80078,-113.80078 -7.3e-4,-62.76077 -51.04001,-113.79775 -113.80078,-113.79688 z m 0,15 c 54.65416,-7.6e-4 98.80014,44.14272 98.80078,98.79688 7.6e-4,54.65054 -44.13833,98.7941 -98.78711,98.80078 -17.30495,-0.0318 -34.2968,-4.60664 -49.27734,-13.26953 l -2.69141,-1.55664 -43.73437,11.71875 11.73242,-43.78711 -1.55664,-2.69336 c -8.65831,-14.96368 -13.23825,-31.93471 -13.2832,-49.22266 l 0,-0.008 c 0.0102,-54.64497 44.14963,-98.77866 98.79687,-98.7793 z m -0.6543,17.66993 c -10.71428,0 -18.92913,1.42773 -23.21484,6.42773 -8.57143,10 -42.14258,61.42969 -42.14258,61.42969 7.14286,21.42857 -2.14313,104.28515 37.14258,94.28515 39.28571,-10 92.14341,-30.71456 95.71484,-42.85742 3.57142,-12.14286 18.57003,-57.14202 10.71289,-76.42773 -7.85714,-19.28572 -11.42857,-39.28628 -40,-40.71485 -14.28571,-0.71428 -27.4986,-2.14258 -38.21289,-2.14257 z"
         style="color:#000000;font-style:normal;font-variant:normal;font-weight:normal;font-stretch:normal;font-size:medium;line-height:normal;font-family:sans-serif;text-indent:0;text-align:start;text-decoration:none;text-decoration-line:none;text-decoration-style:solid;text-decoration-color:#000000;letter-spacing:normal;word-spacing:normal;text-transform:none;direction:ltr;block-progression:tb;writing-mode:lr-tb;baseline-shift:baseline;text-anchor:start;white-space:normal;clip-rule:nonzero;display:inline;overflow:visible;visibility:visible;opacity:1;isolation:auto;mix-blend-mode:normal;color-interpolation:sRGB;color-interpolation-filters:linearRGB;solid-color:#000000;solid-opacity:1;fill:#ffffff;fill-opacity:1;fill-rule:nonzero;stroke:#000000;stroke-width:0.5;stroke-linecap:square;stroke-linejoin:miter;stroke-miterlimit:4;stroke-dasharray:none;stroke-dashoffset:0;stroke-opacity:1;color-rendering:auto;image-rendering:auto;shape-rendering:auto;text-rendering:auto;enable-background:accumulate"
         inkscape:connector-curvature="0" />
      <path
         inkscape:export-ydpi="300"
         inkscape:export-xdpi="300"
         inkscape:connector-curvature="0"
         id="circle4245"
         d="m 498.86928,218.62089 a 106.2991,106.2991 0 0 0 -106.29786,106.29786 106.2991,106.2991 0 0 0 14.29174,52.96926 l -14.29174,53.33131 53.2796,-14.27811 A 106.2991,106.2991 0 0 0 498.86928,431.21932 106.2991,106.2991 0 0 0 605.16986,324.91875 106.2991,106.2991 0 0 0 498.86928,218.62089 Z m 11.27551,49.4712 a 35.741607,35.741607 0 0 1 35.74295,35.74023 35.741607,35.741607 0 0 1 -16.96769,30.36381 l -19.10465,-33.0915 -12.28273,21.27155 -17.89054,0 a 35.741607,35.741607 0 0 1 -5.23758,-18.54386 35.741607,35.741607 0 0 1 35.74024,-35.74023 z m -41.58216,47.67723 19.03116,32.96355 12.28272,-21.27155 18.23353,0 a 35.741607,35.741607 0 0 1 5.2267,18.54388 35.741607,35.741607 0 0 1 -35.74295,35.74295 35.741607,35.741607 0 0 1 -35.74024,-35.74295 35.741607,35.741607 0 0 1 16.70908,-30.23588 z"
         style="opacity:1;fill:#0066ff;fill-opacity:1;stroke:none;stroke-width:1;stroke-linecap:square;stroke-linejoin:miter;stroke-miterlimit:4;stroke-dasharray:none;stroke-opacity:1" />
    </g>
    <g
       id="g5936"
       transform="matrix(0.9994757,0,0,1.0390635,-80.966118,-703.41523)">
      <path
         id="rect5928"
         d="m 292.69141,707.06641 c -39.31767,0.19998 -77.79159,19.35948 -101.17774,54.3164 -14.41079,21.54104 -21.04567,46.01322 -20.60547,70.11133 l 0.0899,4.9082 42.50976,0 c -3.3921,4.01687 -6.78567,8.33777 -10.18945,13.19532 -6.17976,8.81904 -16.33647,20.14638 -21.03125,23.87109 l 0,-0.002 c -5.68086,4.50691 -10.84221,8.65883 -12.67773,10.34765 -0.59405,0.54659 -1.59128,1.61051 -1.72266,3.53516 -0.13138,1.92465 1.05784,3.6652 1.86719,4.34375 1.61868,1.3571 2.29035,1.20573 2.99414,1.34766 1.40757,0.28384 2.74595,0.342 4.50976,0.38671 3.52762,0.0894 8.40389,-0.0512 14.06055,-0.35937 2.19095,-0.11937 4.6687,-0.33448 7.10937,-0.53125 l 0,47.74414 c 0,2.77 2.23,5 5,5 l 171.55079,0 c 2.77,0 5,-2.23 5,-5 l 0,-47.98242 c 2.70326,0.19492 5.49483,0.37784 8.39843,0.54883 10.46677,0.61637 15.06007,1.14298 18.90039,0.52929 0.96008,-0.15342 2.30095,0.009 4.05469,-2.16601 0.87687,-1.0877 1.32276,-2.97581 1.10938,-4.2461 -0.21339,-1.27029 -0.70116,-1.97337 -1.07032,-2.47656 -1.4766,-2.01275 -2.42258,-2.30263 -3.75,-3.25586 -11.72973,-8.42354 -21.73537,-18.8519 -32.09179,-33.5957 -3.03241,-4.317 -5.71743,-8.00903 -8.23047,-11.23438 l 48.13086,0 0.082,-4.91796 c 0.65801,-40.14695 -18.4537,-79.80893 -54.28125,-103.77735 l -0.043,-0.0293 -3.93359,-2.50976 -0.0371,-0.0234 C 337.10929,712.80117 314.7466,706.95424 292.69141,707.0664 Z m 0.0508,10 c 20.25354,-0.103 40.74609,5.24904 59.23633,16.59765 0.002,0.002 0.005,0.002 0.008,0.004 l 3.69531,2.35937 c 31.48115,21.06574 48.65135,55.21993 49.61133,90.375 l -43.69922,0 C 375.93655,816.943 390.75041,806.22206 390,800.21875 c -1.42857,-11.42857 -30.71401,-46.42829 -47.14258,-47.14258 -16.42857,-0.71429 -143.57226,30.71485 -143.57226,30.71485 l 27.11718,42.61132 -45.40429,0 c 0.51403,-20.53153 6.55153,-41.11007 18.82812,-59.46093 21.50781,-32.14924 56.80906,-49.69135 92.91602,-49.875 z m -62.2793,115.71875 3.82227,6.00586 c 0,0 -8.36953,23.96024 -10.78321,41.24023 -4.22119,0.57363 -8.80002,1.09733 -13.44336,1.55469 l -6.63086,0 c -1.01807,0 -1.95976,0.30566 -2.74804,0.82422 -3.44808,0.27008 -6.81099,0.50519 -9.90625,0.67382 -1.91104,0.10412 -2.91883,0.0605 -4.60742,0.1211 1.06797,-0.8591 1.25466,-1.04452 2.33593,-1.90235 l 0,-0.002 c 6.59728,-5.23409 16.25749,-16.33155 23.00782,-25.96484 5.72276,-8.16699 11.32192,-14.95099 16.78515,-20.39063 l 2.16797,-2.16015 z m 120.75391,0.37304 1.63867,1.70703 c 4.07867,4.25012 8.52273,10.02212 14.49023,18.51758 8.49325,12.09131 17.05727,21.66447 26.48242,29.66602 -2.25812,-0.0966 -1.82582,-0.007 -4.86523,-0.18555 -4.24163,-0.24978 -8.1656,-0.53425 -11.94922,-0.83789 -0.62245,-0.27709 -1.30755,-0.43945 -2.03515,-0.43945 l -3.16797,0 c -14.43247,-1.33796 -25.48055,-3.18858 -34.37305,-5.88282 -1.06209,-13.78903 -2.10874,-28.88073 -1.72266,-31.19726 0.24408,-1.46447 6.99805,-5.8645 15.50196,-11.34766 z M 174.7344,883.19531 c 0.0271,-0.0157 0.0834,-0.0227 0.18359,0.006 0.0137,0.004 0.0706,0.0513 0.0859,0.0566 -0.0323,-0.004 -0.2672,-0.0171 -0.2793,-0.0195 -0.0151,-0.003 -0.0173,-0.0273 0.01,-0.043 z"
         style="opacity:1;fill:#ffffff;fill-opacity:1;stroke:#1a1a1a;stroke-width:0.5;stroke-linecap:square;stroke-linejoin:miter;stroke-miterlimit:4;stroke-dasharray:none;stroke-opacity:1"
         inkscape:connector-curvature="0" />
      <g
         id="g5886">
        <path
           inkscape:connector-curvature="0"
           id="path3234"
           d="m 292.71588,712.06549 c -37.71231,0.19182 -74.59881,18.54443 -97.04579,52.09751 -13.83297,20.67732 -20.1834,44.11788 -19.76104,67.23912 l 234.60349,0 c 0.63118,-38.50976 -17.66782,-76.53017 -52.0608,-99.53887 l -3.84951,-2.45634 c -19.29985,-11.84756 -40.73061,-17.449 -61.88635,-17.34142 z m -47.55136,66.24925 c 2.80653,-0.0797 5.64884,0.62602 8.21241,2.19975 l 0.51327,0.29331 c 6.85595,4.5865 8.69283,13.85844 4.10621,20.71427 -4.58652,6.85595 -13.85833,8.72943 -20.71428,4.14293 -6.85595,-4.58664 -8.69283,-13.89517 -4.10621,-20.751 2.78777,-4.16709 7.31116,-6.46563 11.9886,-6.59926 z m 89.60323,0 c 2.80653,-0.0797 5.68545,0.62602 8.24912,2.19975 l 0.47656,0.29331 c 6.85594,4.5865 8.69283,13.85844 4.1062,20.71427 -4.58651,6.85595 -13.85832,8.72943 -20.71428,4.14293 -6.85594,-4.58664 -8.69282,-13.89517 -4.1062,-20.751 2.78776,-4.16709 7.31116,-6.46563 11.9886,-6.59926 z"
           style="fill:#fb8b00;fill-opacity:1;stroke:none"
           inkscape:export-filename="/home/cho2/Gambar/ridon.png"
           inkscape:export-xdpi="90"
           inkscape:export-ydpi="90" />
        <g
           style="font-style:normal;font-weight:normal;font-size:55.95628357px;line-height:125%;font-family:Sans;letter-spacing:0px;word-spacing:0px;fill:#000000;fill-opacity:1;stroke:none"
           id="text3244"
           transform="matrix(1.1732011,0,0,1.1732012,16.000816,577.76927)">
          <path
             d="m 165.6081,269.49125 0,17.48634 8.74317,0 c 2.42257,2e-5 4.48085,-0.84697 6.17486,-2.54099 1.71218,-1.71217 2.56828,-3.77957 2.56831,-6.20218 -3e-5,-2.42256 -0.85613,-4.48084 -2.56831,-6.17487 -1.69401,-1.71216 -3.75229,-2.56826 -6.17486,-2.5683 l -8.74317,0 m -2.1858,-4.37159 10.92897,0 c 3.62475,5e-5 6.71218,1.2842 9.26229,3.85246 2.56828,2.55013 3.85243,5.63756 3.85246,9.2623 -3e-5,3.6248 -1.27507,6.71223 -3.82514,9.26229 -1.18399,1.18399 -2.46814,2.08563 -3.85246,2.70492 l 9.5082,15.2459 c 0.23677,0.34609 0.35516,0.74682 0.35519,1.20219 -3e-5,0.60109 -0.21861,1.12022 -0.65573,1.55737 -0.41898,0.41895 -0.929,0.62842 -1.53006,0.62842 -0.78327,0 -1.42079,-0.37341 -1.91257,-1.12022 l -10.2459,-16.39344 c -0.30967,0.0182 -0.62843,0.0273 -0.95628,0.0273 l -8.74317,0 0,15.30055 c -1e-5,0.60109 -0.21859,1.12022 -0.65574,1.55737 -0.41895,0.41895 -0.92897,0.62842 -1.53006,0.62842 -0.60109,0 -1.12022,-0.20947 -1.55737,-0.62842 -0.41895,-0.43715 -0.62842,-0.95628 -0.62842,-1.55737 l 0,-39.34426 c 0,-0.60105 0.20947,-1.11107 0.62842,-1.53006 0.43715,-0.43711 0.95628,-0.65569 1.55737,-0.65574"
             style="font-variant:normal;font-stretch:normal;font-family:Comfortaa;-inkscape-font-specification:Comfortaa;fill:#000000"
             id="path3005"
             inkscape:connector-curvature="0" />
          <path
             d="m 201.12722,271.67704 c -1e-5,0.74685 -0.27323,1.39348 -0.81967,1.93989 -0.52824,0.52827 -1.16576,0.79239 -1.91257,0.79235 -0.74682,4e-5 -1.39345,-0.26408 -1.93989,-0.79235 -0.52824,-0.54641 -0.79235,-1.19304 -0.79235,-1.93989 0,-0.74677 0.26411,-1.3843 0.79235,-1.91257 0.54644,-0.54641 1.19307,-0.81963 1.93989,-0.81967 0.74681,4e-5 1.38433,0.27326 1.91257,0.81967 0.54644,0.52827 0.81966,1.1658 0.81967,1.91257 m -4.91803,8.74317 c -1e-5,-0.60106 0.20947,-1.11108 0.62841,-1.53005 0.43716,-0.43713 0.95628,-0.65571 1.55738,-0.65574 0.60109,3e-5 1.1111,0.21861 1.53006,0.65574 0.43715,0.41897 0.65573,0.92899 0.65573,1.53005 l 0,26.22951 c 0,0.60109 -0.21858,1.12022 -0.65573,1.55737 -0.41896,0.41895 -0.92897,0.62842 -1.53006,0.62842 -0.6011,0 -1.12022,-0.20947 -1.55738,-0.62842 -0.41894,-0.43715 -0.62842,-0.95628 -0.62841,-1.55737 l 0,-26.22951"
             style="-inkscape-font-specification:Comfortaa;fill:#000000"
             id="path3007"
             inkscape:connector-curvature="0" />
          <path
             d="m 233.36766,293.53496 c -3e-5,-3.02366 -1.0656,-5.60107 -3.19672,-7.73224 -2.13117,-2.13112 -4.70858,-3.19669 -7.73224,-3.19672 -3.0237,3e-5 -5.60111,1.0656 -7.73224,3.19672 -2.13116,2.13117 -3.19673,4.70858 -3.19672,7.73224 -1e-5,3.0237 1.06556,5.60111 3.19672,7.73224 2.13113,2.13116 4.70854,3.19673 7.73224,3.19673 3.02366,0 5.60107,-1.06557 7.73224,-3.19673 2.13112,-2.13113 3.19669,-4.70854 3.19672,-7.73224 m 0,-26.28415 c -3e-5,-0.60105 0.20944,-1.11107 0.62841,-1.53005 0.43713,-0.43712 0.95626,-0.6557 1.55738,-0.65574 0.60106,4e-5 1.11108,0.21862 1.53006,0.65574 0.43712,0.41898 0.6557,0.929 0.65573,1.53005 l 0,26.28415 c -3e-5,4.22588 -1.49365,7.83243 -4.48087,10.81968 -2.98728,2.98725 -6.59383,4.48087 -10.81967,4.48087 -4.22588,0 -7.83244,-1.49362 -10.81968,-4.48087 -2.98725,-2.98725 -4.48087,-6.5938 -4.48087,-10.81968 0,-4.22584 1.49362,-7.8324 4.48087,-10.81967 2.98724,-2.98722 6.5938,-4.48084 10.81968,-4.48087 4.22584,3e-5 7.83239,1.49365 10.81967,4.48087 0.0364,0.0365 0.0728,0.0729 0.10929,0.10929 l 0,-15.57377"
             style="-inkscape-font-specification:Comfortaa;fill:#000000"
             id="path3009"
             inkscape:connector-curvature="0" />
          <path
             d="m 272.71192,293.53496 c -3e-5,4.22588 -1.49366,7.83243 -4.48088,10.81968 -2.98727,2.98725 -6.59382,4.48087 -10.81967,4.48087 -4.22588,0 -7.83243,-1.49362 -10.81967,-4.48087 -2.98725,-2.98725 -4.48088,-6.5938 -4.48087,-10.81968 -1e-5,-4.22584 1.49362,-7.8324 4.48087,-10.81967 2.98724,-2.98722 6.59379,-4.48084 10.81967,-4.48087 4.22585,3e-5 7.8324,1.49365 10.81967,4.48087 2.98722,2.98727 4.48085,6.59383 4.48088,10.81967 M 257.41137,282.606 c -3.02369,3e-5 -5.6011,1.0656 -7.73224,3.19672 -2.13115,2.13117 -3.19673,4.70858 -3.19672,7.73224 -10e-6,3.0237 1.06557,5.60111 3.19672,7.73224 2.13114,2.13116 4.70855,3.19673 7.73224,3.19673 3.02366,0 5.60107,-1.06557 7.73224,-3.19673 2.13112,-2.13113 3.1967,-4.70854 3.19672,-7.73224 -2e-5,-3.02366 -1.0656,-5.60107 -3.19672,-7.73224 -2.13117,-2.13112 -4.70858,-3.19669 -7.73224,-3.19672"
             style="font-variant:normal;font-stretch:normal;font-family:Comfortaa;-inkscape-font-specification:Comfortaa;fill:#000000"
             id="path3011"
             inkscape:connector-curvature="0" />
          <path
             d="m 277.08351,280.42021 c 0,-0.60106 0.20947,-1.11108 0.62842,-1.53005 0.43715,-0.43713 0.95628,-0.65571 1.55737,-0.65574 0.60109,3e-5 1.11111,0.21861 1.53006,0.65574 0.43715,0.41897 0.65573,0.92899 0.65574,1.53005 l 0,1.77596 c 2.73223,-2.64114 6.01091,-3.96172 9.83606,-3.96175 3.91619,3e-5 7.25863,1.39347 10.02733,4.18033 2.78685,2.76869 4.18029,6.11113 4.18032,10.02732 l 0,14.20765 c -3e-5,0.60109 -0.21861,1.12022 -0.65573,1.55737 -0.41898,0.41895 -0.929,0.62842 -1.53006,0.62842 -0.60112,0 -1.12025,-0.20947 -1.55738,-0.62842 -0.41897,-0.43715 -0.62844,-0.95628 -0.62841,-1.55737 l 0,-14.20765 c -3e-5,-2.71401 -0.96542,-5.0273 -2.89618,-6.93989 -1.91259,-1.93076 -4.22588,-2.89615 -6.93989,-2.89618 -2.71404,3e-5 -5.03644,0.96542 -6.96721,2.89618 -1.91258,1.91259 -2.86886,4.22588 -2.86885,6.93989 l 0,14.20765 c -1e-5,0.60109 -0.21859,1.12022 -0.65574,1.55737 -0.41895,0.41895 -0.92897,0.62842 -1.53006,0.62842 -0.60109,0 -1.12022,-0.20947 -1.55737,-0.62842 -0.41895,-0.43715 -0.62842,-0.95628 -0.62842,-1.55737 l 0,-26.22951"
             style="font-variant:normal;font-stretch:normal;font-family:Comfortaa;-inkscape-font-specification:Comfortaa;fill:#000000"
             id="path3013"
             inkscape:connector-curvature="0" />
        </g>
        <path
           id="path3250"
           d="m 172.99353,887.49427 c 1.17449,-1.08062 6.75493,-5.62971 12.40097,-10.109 5.64603,-4.4794 15.55489,-15.69286 22.01993,-24.91903 25.94451,-37.02552 50.30545,-47.84058 75.72356,-33.61714 l 7.64492,4.27796 7.23349,-4.3988 c 12.35522,-7.51388 23.42261,-7.93084 37.66069,-1.41875 15.20691,6.95521 21.29748,12.60957 35.76046,33.19936 10.59248,15.07986 21.03761,26.00119 33.26682,34.78343 5.21195,3.74275 4.8878,3.79459 -16.03449,2.5625 -47.4392,-2.79363 -66.15587,-8.55733 -84.03944,-25.87882 -6.51151,-6.3069 -13.23677,-11.46711 -14.94493,-11.46711 -1.70794,0 -6.37283,3.8169 -10.36595,8.48202 -9.32846,10.8981 -33.495,22.79483 -51.8732,25.53601 -22.05336,3.28942 -56.86458,5.18648 -54.45283,2.96737 z"
           style="fill:#050505"
           inkscape:connector-curvature="0"
           inkscape:export-filename="/home/cho2/Gambar/ridon.png"
           inkscape:export-xdpi="90"
           inkscape:export-ydpi="90" />
      </g>
    </g>
    <g
       id="g5978"
       transform="translate(-111.42857,-25.714286)">
      <rect
         y="441.25769"
         x="153.54735"
         height="70.41433"
         width="318.44583"
         id="rect5976"
         style="opacity:1;fill:#ffffff;fill-opacity:1;stroke:#000000;stroke-width:0.45181265;stroke-linecap:square;stroke-linejoin:miter;stroke-miterlimit:4;stroke-dasharray:none;stroke-opacity:1" />
      <g
         transform="matrix(0.32498461,0,0,0.32498461,157.37017,290.73213)"
         id="g5971">
        <path
           inkscape:export-ydpi="300"
           inkscape:export-xdpi="300"
           inkscape:connector-curvature="0"
           id="path5963"
           d="m 142.17562,475.66982 a 95.842461,95.842461 0 0 0 -95.841342,95.84134 95.842461,95.842461 0 0 0 12.885858,47.75867 l -12.885858,48.08511 48.038481,-12.87357 a 95.842461,95.842461 0 0 0 47.802861,12.87357 95.842461,95.842461 0 0 0 95.84379,-95.84378 95.842461,95.842461 0 0 0 -95.84379,-95.84134 z m 10.16634,44.60471 a 32.225705,32.225705 0 0 1 32.22691,32.22446 32.225705,32.225705 0 0 1 -15.29858,27.37693 l -17.22533,-29.83629 -11.07447,19.17907 -16.13065,0 a 32.225705,32.225705 0 0 1 -4.72236,-16.71971 32.225705,32.225705 0 0 1 32.22448,-32.22446 z m -37.49174,42.98722 17.15908,29.72093 11.07446,-19.17906 16.4399,0 a 32.225705,32.225705 0 0 1 4.71255,16.71971 32.225705,32.225705 0 0 1 -32.22691,32.22692 32.225705,32.225705 0 0 1 -32.224483,-32.22692 32.225705,32.225705 0 0 1 15.065403,-27.26158 z"
           style="opacity:1;fill:#0066ff;fill-opacity:1;stroke:none;stroke-width:1;stroke-linecap:square;stroke-linejoin:miter;stroke-miterlimit:4;stroke-dasharray:none;stroke-opacity:1" />
        <text
           xml:space="preserve"
           style="font-style:normal;font-weight:normal;font-size:144.60705566px;line-height:125%;font-family:sans-serif;letter-spacing:0px;word-spacing:0px;fill:#000000;fill-opacity:1;stroke:none;stroke-width:1px;stroke-linecap:butt;stroke-linejoin:miter;stroke-opacity:1"
           x="265.50107"
           y="622.95099"
           id="text5967"
           sodipodi:linespacing="125%"><tspan
             sodipodi:role="line"
             id="tspan5969"
             x="265.50107"
             y="622.95099"
             style="font-style:normal;font-variant:normal;font-weight:normal;font-stretch:normal;font-family:Roboto;-inkscape-font-specification:Roboto">NGOBREL</tspan></text>
      </g>
    </g>
    <g
       id="g6045"
       transform="matrix(0.97343726,0,0,0.97343726,342.39403,-78.023233)">
      <path
         id="path6004"
         d="m 120.00391,512.46094 c -19.90364,5.3e-4 -36.145948,16.24284 -36.146488,36.14648 a 5.0005,5.0005 0 0 0 0,0.0117 c 0.01389,5.5811 1.390033,11.04341 3.873047,16.01953 l -3.703125,13.82227 a 5.0005,5.0005 0 0 0 6.125,6.125 l 13.808596,-3.70117 c 4.98112,2.4839 10.44719,3.86087 16.0332,3.87109 a 5.0005,5.0005 0 0 0 0.01,0 c 19.90538,7.1e-4 36.14915,-16.24305 36.14843,-36.14844 -5.4e-4,-19.90451 -16.24392,-36.14719 -36.14843,-36.14648 z m 0,10 c 14.50008,-5.2e-4 26.14804,11.6464 26.14843,26.14648 5.2e-4,14.49742 -11.64255,26.14363 -26.13867,26.14844 l -0.004,0 c -2.78677,-0.005 -5.54022,-0.46334 -8.16407,-1.33203 8.55972,-0.59977 17.55584,-2.82985 18.86914,-3.20508 2.5,-0.71429 12.5,-21.78516 12.5,-21.78516 l -4.45898,-5.23047 c 0.0134,-0.25571 0.025,-0.51157 0.0254,-0.76953 a 5.0005,5.0005 0 0 0 0,-0.008 c -0.002,-7.91763 -6.08568,-14.52232 -13.79297,-15.37109 l -0.3457,-0.40625 c 0,0 -0.96583,0.30412 -1.02735,0.32422 -0.10363,-0.002 -0.20449,-0.0157 -0.30859,-0.0156 a 5.0005,5.0005 0 0 0 -0.002,0 c -4.0823,9.7e-4 -7.80268,1.62935 -10.57422,4.25391 -3.23201,2.04116 -6.03937,4.81866 -9.1582,7.9375 -3.18009,3.18008 -6.693559,11.05051 -7.904301,18.9082 -1.176009,-3.00394 -1.801734,-6.20609 -1.810547,-9.45508 0.0036,-14.49666 11.649038,-26.14023 26.146488,-26.14062 z m 89.2539,3.9707 c -2.6559,0 -5.25054,0.46889 -7.64258,1.45508 -2.31767,0.95553 -4.39017,2.42087 -6.10546,4.24414 l 0,-0.2168 a 5.0005,5.0005 0 0 0 -5,-5 l -8.03125,0 a 5.0005,5.0005 0 0 0 -5,5 l 0,1.875 -2.47071,-4.3457 a 5.0005,5.0005 0 0 0 -4.34765,-2.5293 l -8.05274,0 a 5.0005,5.0005 0 0 0 -5,5 l 0,33.41016 a 5.0005,5.0005 0 0 0 5,5 l 8.05274,0 a 5.0005,5.0005 0 0 0 5,-5 l 0,-1.91016 2.49804,4.38477 a 5.0005,5.0005 0 0 0 4.34375,2.52539 l 8.00782,0 a 5.0005,5.0005 0 0 0 5,-5 l 0,-0.23047 c 1.76169,1.84703 3.90991,3.30435 6.29882,4.25586 2.46467,0.98169 5.13875,1.43359 7.90821,1.43359 2.07662,0 4.02899,-0.17425 5.875,-0.56445 1.70076,-0.34183 3.28042,-0.7936 4.74609,-1.4043 1.35695,-0.5654 2.60145,-1.21125 3.74219,-2.00976 0.97788,-0.68452 1.84428,-1.38676 2.63281,-2.25977 a 5.0005,5.0005 0 0 0 0.14453,-0.17578 c 0.0963,0.112 0.16075,0.24975 0.25977,0.35938 a 5.0005,5.0005 0 0 0 0.0195,0.0215 c 1.76971,1.93625 3.94365,3.47265 6.36133,4.50586 a 5.0005,5.0005 0 0 0 0.0469,0.0195 c 2.45579,1.01978 5.1242,1.50781 7.86133,1.50781 2.71488,0 5.36368,-0.4917 7.79687,-1.51953 a 5.0005,5.0005 0 0 0 0.0195,-0.008 c 2.25559,-0.96393 4.26239,-2.40666 5.95312,-4.16797 l 0,0.23633 a 5.0005,5.0005 0 0 0 5,5 l 13.33203,0 c 4.70784,0 8.90303,-0.88289 12.23633,-3.37305 a 5.0005,5.0005 0 0 0 4.72266,3.37305 l 8.05468,0 a 5.0005,5.0005 0 0 0 4.95899,-4.41211 l 0.82422,1.64844 a 5.0005,5.0005 0 0 0 4.47265,2.76367 l 8.62891,0 a 5.0005,5.0005 0 0 0 1.85742,-0.36133 5.0005,5.0005 0 0 0 1.85938,0.36133 l 23.01562,0 a 5.0005,5.0005 0 0 0 1.66406,-0.29102 5.0005,5.0005 0 0 0 1.66407,0.29102 l 22.07422,0 a 5.0005,5.0005 0 0 0 5,-5 l 0,-6.19531 a 5.0005,5.0005 0 0 0 -5,-5 l -9.02149,0 0,-22.21485 a 5.0005,5.0005 0 0 0 -5,-5 l -8.05273,0 a 5.0005,5.0005 0 0 0 -1.64258,0.28321 5.0005,5.0005 0 0 0 -1.63867,-0.28321 l -23.0625,0 a 5.0005,5.0005 0 0 0 -4.88867,3.97266 c -0.12586,-0.10399 -0.22009,-0.24264 -0.34961,-0.3418 -1.67042,-1.29361 -3.61029,-2.20321 -5.67969,-2.77539 -2.07782,-0.58967 -4.28119,-0.85547 -6.58985,-0.85547 l -13.14843,0 a 5.0005,5.0005 0 0 0 -4.87891,3.9375 c -0.31746,-0.26118 -0.58861,-0.57946 -0.92773,-0.80859 -1.74482,-1.17893 -3.72321,-1.94812 -5.83008,-2.42383 -2.07489,-0.48704 -4.2866,-0.70508 -6.65235,-0.70508 l -12.00195,0 a 5.0005,5.0005 0 0 0 -5,5 l 0,0.27735 c -1.69626,-1.77266 -3.71303,-3.22017 -5.97656,-4.1875 -2.44942,-1.04676 -5.11528,-1.54883 -7.83984,-1.54883 -2.74671,0 -5.42649,0.49829 -7.88477,1.54883 -2.41767,1.0332 -4.59162,2.56957 -6.36133,4.50586 a 5.0005,5.0005 0 0 0 -0.0195,0.0215 c -0.58372,0.64625 -1.04635,1.3913 -1.53516,2.11523 -0.77844,-1.36252 -1.68876,-2.64862 -2.84765,-3.71093 -1.6812,-1.54109 -3.71084,-2.65391 -5.90625,-3.38867 -2.32251,-0.7931 -4.83424,-1.11524 -7.54688,-1.11524 z m 46.28125,6.07813 0.0195,0.0215 c -0.003,-0.004 -0.008,-0.006 -0.0117,-0.01 -0.003,-0.003 -0.005,-0.008 -0.008,-0.0117 z m -42.00586,0.73046 0.0332,0.0117 c -0.004,-10e-4 -0.008,-5.4e-4 -0.0117,-0.002 -0.007,-0.003 -0.0142,-0.007 -0.0215,-0.01 z m 75.35742,1.5293 0.0137,0.0234 c -0.003,-0.006 -0.009,-0.01 -0.0117,-0.0156 -0.001,-0.002 -6.6e-4,-0.005 -0.002,-0.008 z m -9.77734,0.31445 0.0469,0.0352 c -0.008,-0.006 -0.0158,-0.006 -0.0234,-0.0117 -0.009,-0.007 -0.0144,-0.0166 -0.0234,-0.0234 z m -62.04492,0.30274 0.0605,0.0606 c -0.013,-0.013 -0.0299,-0.0203 -0.043,-0.0332 -0.008,-0.008 -0.01,-0.0197 -0.0176,-0.0273 z m 102.81055,0.11523 0.0215,0.0469 c -0.003,-0.007 -0.0103,-0.0123 -0.0137,-0.0195 -0.004,-0.009 -0.004,-0.0186 -0.008,-0.0274 z m -9.21875,0.40235 0.0312,0.0332 c -0.005,-0.005 -0.0126,-0.006 -0.0176,-0.0117 -0.006,-0.006 -0.008,-0.0152 -0.0137,-0.0215 z m -143.05274,1.00976 0.14453,0 1.59375,2.80274 a 5.0005,5.0005 0 0 0 -1.73828,0.86328 l 0,-3.66602 z m 33.13086,0.44141 c -0.003,0.004 -0.003,0.009 -0.006,0.0137 -0.005,0.008 -0.0126,0.0139 -0.0176,0.0215 l 0.0234,-0.0352 z m 79.93945,11.45508 0.0723,0.0781 c -0.0126,-0.0138 -0.0322,-0.0156 -0.0449,-0.0293 -0.0133,-0.0141 -0.0138,-0.0348 -0.0274,-0.0488 z m 38.1211,2.07422 -0.0117,0.0195 c 0.003,-0.004 0.003,-0.01 0.006,-0.0137 l 0.006,-0.006 z m -28.21094,0.99414 0.0312,0.11718 c -0.004,-0.0179 -0.017,-0.0329 -0.0215,-0.0508 -0.006,-0.0216 -0.004,-0.0448 -0.01,-0.0664 z m -105.07812,4.79882 0,3.64649 -0.10157,0 -1.59961,-2.80664 a 5.0005,5.0005 0 0 0 1.70118,-0.83985 z M 217,562.86719 l -0.10938,0.0684 c 0.0199,-0.0121 0.0407,-0.0327 0.0605,-0.0449 0.0167,-0.0106 0.0321,-0.0126 0.0488,-0.0234 z m 60.23242,0.67969 -0.0391,0.0137 c 0.006,-0.002 0.0117,-0.008 0.0176,-0.01 0.007,-0.003 0.0141,-9e-4 0.0215,-0.004 z m -21.65234,1.18164 -0.0195,0.0215 c 0.003,-0.003 0.005,-0.008 0.008,-0.0117 0.003,-0.004 0.008,-0.006 0.0117,-0.01 z m -159.005861,5.54882 c 0.513234,0.67609 1.206139,1.23458 2.058593,1.68164 l -2.703124,0.72461 0.644531,-2.40625 z"
         style="color:#000000;font-style:normal;font-variant:normal;font-weight:normal;font-stretch:normal;font-size:medium;line-height:normal;font-family:sans-serif;text-indent:0;text-align:start;text-decoration:none;text-decoration-line:none;text-decoration-style:solid;text-decoration-color:#000000;letter-spacing:normal;word-spacing:normal;text-transform:none;direction:ltr;block-progression:tb;writing-mode:lr-tb;baseline-shift:baseline;text-anchor:start;white-space:normal;clip-rule:nonzero;display:inline;overflow:visible;visibility:visible;opacity:1;isolation:auto;mix-blend-mode:normal;color-interpolation:sRGB;color-interpolation-filters:linearRGB;solid-color:#000000;solid-opacity:1;fill:#ffffff;fill-opacity:1;fill-rule:nonzero;stroke:#000000;stroke-width:0.5;stroke-linecap:round;stroke-linejoin:round;stroke-miterlimit:4;stroke-dasharray:none;stroke-dashoffset:0;stroke-opacity:1;color-rendering:auto;image-rendering:auto;shape-rendering:auto;text-rendering:auto;enable-background:accumulate"
         inkscape:connector-curvature="0" />
      <g
         id="g5989"
         transform="matrix(0.32498461,0,0,0.32498461,73.798742,362.87499)">
        <path
           style="opacity:1;fill:#0066ff;fill-opacity:1;stroke:none;stroke-width:1;stroke-linecap:square;stroke-linejoin:miter;stroke-miterlimit:4;stroke-dasharray:none;stroke-opacity:1"
           d="m 142.17562,475.66982 a 95.842461,95.842461 0 0 0 -95.841342,95.84134 95.842461,95.842461 0 0 0 12.885858,47.75867 l -12.885858,48.08511 48.038481,-12.87357 a 95.842461,95.842461 0 0 0 47.802861,12.87357 95.842461,95.842461 0 0 0 95.84379,-95.84378 95.842461,95.842461 0 0 0 -95.84379,-95.84134 z m 10.16634,44.60471 a 32.225705,32.225705 0 0 1 32.22691,32.22446 32.225705,32.225705 0 0 1 -15.29858,27.37693 l -17.22533,-29.83629 -11.07447,19.17907 -16.13065,0 a 32.225705,32.225705 0 0 1 -4.72236,-16.71971 32.225705,32.225705 0 0 1 32.22448,-32.22446 z m -37.49174,42.98722 17.15908,29.72093 11.07446,-19.17906 16.4399,0 a 32.225705,32.225705 0 0 1 4.71255,16.71971 32.225705,32.225705 0 0 1 -32.22691,32.22692 32.225705,32.225705 0 0 1 -32.224483,-32.22692 32.225705,32.225705 0 0 1 15.065403,-27.26158 z"
           id="path5991"
           inkscape:connector-curvature="0"
           inkscape:export-xdpi="300"
           inkscape:export-ydpi="300" />
        <text
           sodipodi:linespacing="125%"
           id="text5993"
           y="622.95099"
           x="265.50107"
           style="font-style:normal;font-weight:normal;font-size:144.60705566px;line-height:125%;font-family:sans-serif;letter-spacing:0px;word-spacing:0px;fill:#000000;fill-opacity:1;stroke:none;stroke-width:1px;stroke-linecap:butt;stroke-linejoin:miter;stroke-opacity:1"
           xml:space="preserve"><tspan
             style="font-style:normal;font-variant:normal;font-weight:normal;font-stretch:normal;font-family:Roboto;-inkscape-font-specification:Roboto"
             y="622.95099"
             x="265.50107"
             id="tspan5995"
             sodipodi:role="line">NGOBREL</tspan></text>
      </g>
    </g>
    <text
       xml:space="preserve"
       style="font-style:normal;font-weight:normal;font-size:40px;line-height:125%;font-family:sans-serif;letter-spacing:0px;word-spacing:0px;fill:#000000;fill-opacity:1;stroke:none;stroke-width:1px;stroke-linecap:butt;stroke-linejoin:miter;stroke-opacity:1"
       x="57.175037"
       y="340.21936"
       id="text6071"
       sodipodi:linespacing="125%"><tspan
         sodipodi:role="line"
         id="tspan6073"
         x="57.175037"
         y="340.21936">70mm x 70mm</tspan></text>
    <text
       xml:space="preserve"
       style="font-style:normal;font-weight:normal;font-size:40px;line-height:125%;font-family:sans-serif;letter-spacing:0px;word-spacing:0px;fill:#000000;fill-opacity:1;stroke:none;stroke-width:1px;stroke-linecap:butt;stroke-linejoin:miter;stroke-opacity:1"
       x="422.85715"
       y="340.21936"
       id="text6075"
       sodipodi:linespacing="125%"><tspan
         sodipodi:role="line"
         id="tspan6077"
         x="422.85715"
         y="340.21936">65mm x 65mm</tspan></text>
    <text
       xml:space="preserve"
       style="font-style:normal;font-weight:normal;font-size:40px;line-height:125%;font-family:sans-serif;letter-spacing:0px;word-spacing:0px;fill:#000000;fill-opacity:1;stroke:none;stroke-width:1px;stroke-linecap:butt;stroke-linejoin:miter;stroke-opacity:1"
       x="65.714287"
       y="548.07648"
       id="text6079"
       sodipodi:linespacing="125%"><tspan
         sodipodi:role="line"
         id="tspan6081"
         x="65.714287"
         y="548.07648">90mm x 20mm</tspan></text>
    <text
       sodipodi:linespacing="125%"
       id="text6083"
       y="546.64795"
       x="405.71429"
       style="font-style:normal;font-weight:normal;font-size:40px;line-height:125%;font-family:sans-serif;letter-spacing:0px;word-spacing:0px;fill:#000000;fill-opacity:1;stroke:none;stroke-width:1px;stroke-linecap:butt;stroke-linejoin:miter;stroke-opacity:1"
       xml:space="preserve"><tspan
         y="546.64795"
         x="405.71429"
         id="tspan6085"
         sodipodi:role="line">80mm x 20mm</tspan></text>
    <g
       id="g6458">
      <rect
         y="644.99365"
         x="42.426449"
         height="123.51566"
         width="318.39755"
         id="rect6160"
         style="opacity:1;fill:#ffffff;fill-opacity:1;stroke:#000000;stroke-width:0.50008136;stroke-linecap:round;stroke-linejoin:round;stroke-miterlimit:4;stroke-dasharray:none;stroke-opacity:1" />
      <g
         transform="translate(-214.61251,-143.75934)"
         id="g6146">
        <g
           id="g6135"
           transform="translate(3.2510165,0)">
          <g
             style="font-style:normal;font-weight:normal;font-size:55.95628357px;line-height:125%;font-family:Sans;letter-spacing:0px;word-spacing:0px;fill:#000000;fill-opacity:1;stroke:none"
             id="g6095"
             transform="matrix(1.1725956,0,0,1.2190405,197.74343,498.89467)">
            <path
               d="m 165.6081,269.49125 0,17.48634 8.74317,0 c 2.42257,2e-5 4.48085,-0.84697 6.17486,-2.54099 1.71218,-1.71217 2.56828,-3.77957 2.56831,-6.20218 -3e-5,-2.42256 -0.85613,-4.48084 -2.56831,-6.17487 -1.69401,-1.71216 -3.75229,-2.56826 -6.17486,-2.5683 l -8.74317,0 m -2.1858,-4.37159 10.92897,0 c 3.62475,5e-5 6.71218,1.2842 9.26229,3.85246 2.56828,2.55013 3.85243,5.63756 3.85246,9.2623 -3e-5,3.6248 -1.27507,6.71223 -3.82514,9.26229 -1.18399,1.18399 -2.46814,2.08563 -3.85246,2.70492 l 9.5082,15.2459 c 0.23677,0.34609 0.35516,0.74682 0.35519,1.20219 -3e-5,0.60109 -0.21861,1.12022 -0.65573,1.55737 -0.41898,0.41895 -0.929,0.62842 -1.53006,0.62842 -0.78327,0 -1.42079,-0.37341 -1.91257,-1.12022 l -10.2459,-16.39344 c -0.30967,0.0182 -0.62843,0.0273 -0.95628,0.0273 l -8.74317,0 0,15.30055 c -1e-5,0.60109 -0.21859,1.12022 -0.65574,1.55737 -0.41895,0.41895 -0.92897,0.62842 -1.53006,0.62842 -0.60109,0 -1.12022,-0.20947 -1.55737,-0.62842 -0.41895,-0.43715 -0.62842,-0.95628 -0.62842,-1.55737 l 0,-39.34426 c 0,-0.60105 0.20947,-1.11107 0.62842,-1.53006 0.43715,-0.43711 0.95628,-0.65569 1.55737,-0.65574"
               style="font-variant:normal;font-stretch:normal;font-family:Comfortaa;-inkscape-font-specification:Comfortaa;fill:#000000"
               id="path6097"
               inkscape:connector-curvature="0" />
            <path
               d="m 201.12722,271.67704 c -1e-5,0.74685 -0.27323,1.39348 -0.81967,1.93989 -0.52824,0.52827 -1.16576,0.79239 -1.91257,0.79235 -0.74682,4e-5 -1.39345,-0.26408 -1.93989,-0.79235 -0.52824,-0.54641 -0.79235,-1.19304 -0.79235,-1.93989 0,-0.74677 0.26411,-1.3843 0.79235,-1.91257 0.54644,-0.54641 1.19307,-0.81963 1.93989,-0.81967 0.74681,4e-5 1.38433,0.27326 1.91257,0.81967 0.54644,0.52827 0.81966,1.1658 0.81967,1.91257 m -4.91803,8.74317 c -1e-5,-0.60106 0.20947,-1.11108 0.62841,-1.53005 0.43716,-0.43713 0.95628,-0.65571 1.55738,-0.65574 0.60109,3e-5 1.1111,0.21861 1.53006,0.65574 0.43715,0.41897 0.65573,0.92899 0.65573,1.53005 l 0,26.22951 c 0,0.60109 -0.21858,1.12022 -0.65573,1.55737 -0.41896,0.41895 -0.92897,0.62842 -1.53006,0.62842 -0.6011,0 -1.12022,-0.20947 -1.55738,-0.62842 -0.41894,-0.43715 -0.62842,-0.95628 -0.62841,-1.55737 l 0,-26.22951"
               style="-inkscape-font-specification:Comfortaa;fill:#000000"
               id="path6099"
               inkscape:connector-curvature="0" />
            <path
               d="m 233.36766,293.53496 c -3e-5,-3.02366 -1.0656,-5.60107 -3.19672,-7.73224 -2.13117,-2.13112 -4.70858,-3.19669 -7.73224,-3.19672 -3.0237,3e-5 -5.60111,1.0656 -7.73224,3.19672 -2.13116,2.13117 -3.19673,4.70858 -3.19672,7.73224 -1e-5,3.0237 1.06556,5.60111 3.19672,7.73224 2.13113,2.13116 4.70854,3.19673 7.73224,3.19673 3.02366,0 5.60107,-1.06557 7.73224,-3.19673 2.13112,-2.13113 3.19669,-4.70854 3.19672,-7.73224 m 0,-26.28415 c -3e-5,-0.60105 0.20944,-1.11107 0.62841,-1.53005 0.43713,-0.43712 0.95626,-0.6557 1.55738,-0.65574 0.60106,4e-5 1.11108,0.21862 1.53006,0.65574 0.43712,0.41898 0.6557,0.929 0.65573,1.53005 l 0,26.28415 c -3e-5,4.22588 -1.49365,7.83243 -4.48087,10.81968 -2.98728,2.98725 -6.59383,4.48087 -10.81967,4.48087 -4.22588,0 -7.83244,-1.49362 -10.81968,-4.48087 -2.98725,-2.98725 -4.48087,-6.5938 -4.48087,-10.81968 0,-4.22584 1.49362,-7.8324 4.48087,-10.81967 2.98724,-2.98722 6.5938,-4.48084 10.81968,-4.48087 4.22584,3e-5 7.83239,1.49365 10.81967,4.48087 0.0364,0.0365 0.0728,0.0729 0.10929,0.10929 l 0,-15.57377"
               style="-inkscape-font-specification:Comfortaa;fill:#000000"
               id="path6101"
               inkscape:connector-curvature="0" />
            <path
               d="m 272.71192,293.53496 c -3e-5,4.22588 -1.49366,7.83243 -4.48088,10.81968 -2.98727,2.98725 -6.59382,4.48087 -10.81967,4.48087 -4.22588,0 -7.83243,-1.49362 -10.81967,-4.48087 -2.98725,-2.98725 -4.48088,-6.5938 -4.48087,-10.81968 -1e-5,-4.22584 1.49362,-7.8324 4.48087,-10.81967 2.98724,-2.98722 6.59379,-4.48084 10.81967,-4.48087 4.22585,3e-5 7.8324,1.49365 10.81967,4.48087 2.98722,2.98727 4.48085,6.59383 4.48088,10.81967 M 257.41137,282.606 c -3.02369,3e-5 -5.6011,1.0656 -7.73224,3.19672 -2.13115,2.13117 -3.19673,4.70858 -3.19672,7.73224 -10e-6,3.0237 1.06557,5.60111 3.19672,7.73224 2.13114,2.13116 4.70855,3.19673 7.73224,3.19673 3.02366,0 5.60107,-1.06557 7.73224,-3.19673 2.13112,-2.13113 3.1967,-4.70854 3.19672,-7.73224 -2e-5,-3.02366 -1.0656,-5.60107 -3.19672,-7.73224 -2.13117,-2.13112 -4.70858,-3.19669 -7.73224,-3.19672"
               style="font-variant:normal;font-stretch:normal;font-family:Comfortaa;-inkscape-font-specification:Comfortaa;fill:#000000"
               id="path6103"
               inkscape:connector-curvature="0" />
            <path
               d="m 277.08351,280.42021 c 0,-0.60106 0.20947,-1.11108 0.62842,-1.53005 0.43715,-0.43713 0.95628,-0.65571 1.55737,-0.65574 0.60109,3e-5 1.11111,0.21861 1.53006,0.65574 0.43715,0.41897 0.65573,0.92899 0.65574,1.53005 l 0,1.77596 c 2.73223,-2.64114 6.01091,-3.96172 9.83606,-3.96175 3.91619,3e-5 7.25863,1.39347 10.02733,4.18033 2.78685,2.76869 4.18029,6.11113 4.18032,10.02732 l 0,14.20765 c -3e-5,0.60109 -0.21861,1.12022 -0.65573,1.55737 -0.41898,0.41895 -0.929,0.62842 -1.53006,0.62842 -0.60112,0 -1.12025,-0.20947 -1.55738,-0.62842 -0.41897,-0.43715 -0.62844,-0.95628 -0.62841,-1.55737 l 0,-14.20765 c -3e-5,-2.71401 -0.96542,-5.0273 -2.89618,-6.93989 -1.91259,-1.93076 -4.22588,-2.89615 -6.93989,-2.89618 -2.71404,3e-5 -5.03644,0.96542 -6.96721,2.89618 -1.91258,1.91259 -2.86886,4.22588 -2.86885,6.93989 l 0,14.20765 c -1e-5,0.60109 -0.21859,1.12022 -0.65574,1.55737 -0.41895,0.41895 -0.92897,0.62842 -1.53006,0.62842 -0.60109,0 -1.12022,-0.20947 -1.55737,-0.62842 -0.41895,-0.43715 -0.62842,-0.95628 -0.62842,-1.55737 l 0,-26.22951"
               style="font-variant:normal;font-stretch:normal;font-family:Comfortaa;-inkscape-font-specification:Comfortaa;fill:#000000"
               id="path6105"
               inkscape:connector-curvature="0" />
          </g>
          <g
             transform="matrix(0.43619288,0,0,0.43619288,241.79268,475.38338)"
             id="g6127">
            <path
               inkscape:export-ydpi="90"
               inkscape:export-xdpi="90"
               inkscape:export-filename="/home/cho2/Gambar/ridon.png"
               style="fill:#fb8b00;fill-opacity:1;stroke:none"
               d="m 184.45344,733.60888 c -37.69254,0.19932 -74.5597,19.26884 -96.99491,54.13263 -13.825717,21.48504 -20.172818,45.84127 -19.750679,69.86571 l 234.480489,0 c 0.63085,-40.01408 -17.65856,-79.51971 -52.03351,-103.42721 l -3.84749,-2.55229 c -19.28973,-12.31037 -40.70925,-18.13062 -61.8539,-18.01884 z m -47.52643,68.83718 c 2.80506,-0.0828 5.64588,0.65048 8.2081,2.28568 l 0.51301,0.30477 c 6.85235,4.76566 8.68827,14.3998 4.10405,21.52344 -4.58411,7.12377 -13.85106,9.07043 -20.70342,4.30477 -6.85235,-4.76581 -8.68827,-14.43796 -4.10405,-21.56161 2.7863,-4.32987 7.30732,-6.7182 11.98231,-6.85705 z m 89.55625,0 c 2.80506,-0.0828 5.68247,0.65048 8.2448,2.28568 l 0.47631,0.30477 c 6.85234,4.76566 8.68827,14.3998 4.10404,21.52344 -4.5841,7.12377 -13.85105,9.07043 -20.70342,4.30477 -6.85234,-4.76581 -8.68826,-14.43796 -4.10404,-21.56161 2.7863,-4.32987 7.30732,-6.7182 11.98231,-6.85705 z"
               id="path6093"
               inkscape:connector-curvature="0" />
            <path
               inkscape:export-ydpi="90"
               inkscape:export-xdpi="90"
               inkscape:export-filename="/home/cho2/Gambar/ridon.png"
               inkscape:connector-curvature="0"
               style="fill:#050505"
               d="m 64.793859,915.89053 c 1.173875,-1.12284 6.751389,-5.84963 12.394469,-10.5039 5.643069,-4.65438 15.546734,-16.30587 22.008385,-25.89245 25.930907,-38.47187 50.279077,-49.7094 75.683857,-34.93034 l 7.64091,4.44507 7.2297,-4.57063 c 12.34874,-7.8074 23.41033,-8.24065 37.64094,-1.47418 15.19894,7.22691 21.28632,13.10215 35.74172,34.49625 10.58692,15.66893 21.02658,27.01689 33.24937,36.14219 5.20922,3.88895 4.88524,3.94282 -16.02608,2.6626 -47.41433,-2.90276 -66.12118,-8.89161 -83.99538,-26.88974 -6.50809,-6.55327 -13.22983,-11.91505 -14.93709,-11.91505 -1.70705,0 -6.36949,3.966 -10.36052,8.81335 -9.32357,11.32382 -33.47744,23.68528 -51.846,26.53354 -22.041798,3.41792 -56.834766,5.38908 -54.424281,3.08329 z"
               id="path6107" />
          </g>
        </g>
        <text
           xml:space="preserve"
           style="font-style:normal;font-weight:normal;font-size:40px;line-height:125%;font-family:sans-serif;letter-spacing:0px;word-spacing:0px;fill:#000000;fill-opacity:1;stroke:none;stroke-width:1px;stroke-linecap:butt;stroke-linejoin:miter;stroke-opacity:1"
           x="270.89594"
           y="900.83929"
           id="text6131"
           sodipodi:linespacing="125%"><tspan
             sodipodi:role="line"
             id="tspan6133"
             x="270.89594"
             y="900.83929"
             style="font-style:normal;font-variant:normal;font-weight:normal;font-stretch:normal;font-size:20px;font-family:'Open Sans';-inkscape-font-specification:'Open Sans'">Begadang Membangun Bangsa</tspan></text>
      </g>
    </g>
    <text
       sodipodi:linespacing="125%"
       id="text6162"
       y="832.93951"
       x="48.597881"
       style="font-style:normal;font-weight:normal;font-size:40px;line-height:125%;font-family:sans-serif;letter-spacing:0px;word-spacing:0px;fill:#000000;fill-opacity:1;stroke:none;stroke-width:1px;stroke-linecap:butt;stroke-linejoin:miter;stroke-opacity:1"
       xml:space="preserve"><tspan
         y="832.93951"
         x="48.597881"
         id="tspan6164"
         sodipodi:role="line">90mm x 35mm</tspan></text>
    <g
       id="g6411"
       transform="matrix(0.99514365,0,0,1.0284663,2.0184321,-21.79602)">
      <path
         sodipodi:nodetypes="cscccsccccccccccccccccccccccccccccccccccccccccccccccccsccccccccccccscccccsccccccccccccccccccccccccc"
         inkscape:connector-curvature="0"
         id="path6274"
         d="m 475.51367,645.48633 c -18.9452,0.10013 -37.44031,9.74982 -48.57617,27.05469 -6.86158,10.66283 -10.01357,22.77626 -9.80469,34.66406 l 0.12891,7.36914 13.20703,0 c -2.48979,3.25812 -5.62032,6.85009 -6.47461,7.55469 -2.51336,2.07296 -4.33024,3.52384 -5.81836,4.94726 -1.70772,1.40338 -2.77379,2.07199 -3.14844,4.21485 l 0,34.28515 0.38477,0 15.75195,0 5.45899,0 140.33398,0 3.54688,0 72.8789,0 4.13281,0 41.09376,0 2.76562,0 15.79492,0 0,-14.43164 0,-19.85351 c -0.18162,-5.77494 -0.39652,-12.64581 -0.39652,-18.28711 -4e-5,-6.47648 -2.51105,-12.77694 -6.9961,-17.41993 -4.46594,-4.66506 -10.72969,-7.40035 -17.16406,-7.40039 -3.05415,2e-5 -6.06508,0.63173 -8.87109,1.77149 -1.61566,-1.00109 -3.4466,-1.77142 -5.22461,-1.77149 -2.59106,1.1e-4 -5.52544,1.32712 -7.23047,3.09961 l -0.002,0 c -0.84233,0.87573 -1.52143,2.01126 -2.01172,3.21485 -4.55075,-3.95911 -10.34272,-6.31442 -16.38672,-6.31446 -5.68418,3e-5 -11.14474,2.08643 -15.56836,5.61719 l 0,-11.50586 c -1.3e-4,-2.42177 -1.16013,-5.25108 -2.88672,-7.04101 -1.71735,-1.78914 -4.62314,-3.12482 -7.17578,-3.125 -2.60463,1.9e-4 -5.53178,1.33564 -7.23047,3.10156 l -0.002,0 c -1.73565,1.80443 -2.83018,4.65913 -2.83008,7.06445 l 0,6.50196 c -1.7394,-0.38577 -3.51572,-0.61328 -5.31641,-0.61329 -6.79299,4e-5 -13.36311,2.84977 -18.08984,7.76368 l -0.002,0 c -0.16229,0.16872 -0.27433,0.37418 -0.43164,0.54687 -0.21039,-1.01528 -0.4949,-1.93119 -0.98829,-2.86914 1.16028,-1.78906 2.02342,-3.88938 2.02344,-5.93555 -3e-5,-2.62747 -1.23892,-5.61071 -3.07422,-7.50976 -1.83264,-1.91385 -4.89083,-3.32015 -7.63086,-3.32031 -2.78167,1.6e-4 -5.85911,1.41027 -7.67773,3.30078 l -0.002,0 c -0.64354,0.66908 -1.08022,1.57776 -1.54102,2.45117 -0.79408,-1.21451 -1.69245,-2.36403 -2.70703,-3.41406 -4.21595,-4.40412 -10.18332,-6.99991 -16.26563,-7 l -12.81445,0 c -2.59086,2.2e-4 -5.52549,1.32727 -7.23047,3.09961 l -0.002,0 c -1.7284,1.79708 -2.83203,4.64601 -2.83203,7.06445 l 0,9.10351 c -3.38429,-14.04455 -11.5593,-26.92955 -24.11524,-35.66211 l -0.0703,-0.0469 -1.80273,-1.19531 -0.0547,-0.0352 c -9.63294,-6.14759 -20.42871,-9.09329 -31.05469,-9.03711 z m 0.0781,15 c 7.81758,-0.0413 15.70531,2.08922 22.89843,6.67773 0.003,0.002 0.005,0.002 0.008,0.004 l 1.43554,0.95312 c 9.47876,6.59416 15.64704,16.41068 18.14844,27.16797 -7.64919,-9.27122 -17.28043,-20.57344 -19.06641,-20.87109 -1.84143,-0.30691 -23.50266,0.66529 -40.76171,1.49609 -1.20823,-0.29436 -2.44061,-0.43224 -3.65235,-0.39648 l -0.002,0 c -1.37795,0.0409 -2.73704,0.31816 -4.04297,0.76758 -4.00351,0.19757 -5.87657,0.28824 -8.12109,0.40234 8.48291,-10.53599 20.70612,-16.13537 33.15625,-16.20117 z m 92.51562,22.43945 0.0566,0.0586 c -0.009,-0.01 -0.0217,-0.0174 -0.0312,-0.0273 -0.009,-0.01 -0.016,-0.0217 -0.0254,-0.0312 z m -130.93359,1.9082 -0.41406,14.74024 -4.15625,0 c 0.6941,-5.05396 2.19601,-10.03182 4.57031,-14.74024 z m 153.59765,6.33399 0.22071,0.22851 c -0.0338,-0.0366 -0.0961,-0.0556 -0.13086,-0.0918 -0.0363,-0.0376 -0.0531,-0.10008 -0.0898,-0.13672 z m 94.83204,0 0.2207,0.22851 c -0.0337,-0.0365 -0.0962,-0.0556 -0.13086,-0.0918 -0.0363,-0.0376 -0.0531,-0.10008 -0.0898,-0.13672 z m 20.52929,8.14844 0.0488,0.0508 c -0.008,-0.009 -0.0191,-0.0148 -0.0273,-0.0234 -0.008,-0.008 -0.0134,-0.019 -0.0215,-0.0273 z"
         style="color:#000000;font-style:normal;font-variant:normal;font-weight:normal;font-stretch:normal;font-size:medium;line-height:125%;font-family:Comfortaa;-inkscape-font-specification:Comfortaa;text-indent:0;text-align:start;text-decoration:none;text-decoration-line:none;text-decoration-style:solid;text-decoration-color:#000000;letter-spacing:0px;word-spacing:0px;text-transform:none;direction:ltr;block-progression:tb;writing-mode:lr-tb;baseline-shift:baseline;text-anchor:start;white-space:normal;clip-rule:nonzero;display:inline;overflow:visible;visibility:visible;opacity:1;isolation:auto;mix-blend-mode:normal;color-interpolation:sRGB;color-interpolation-filters:linearRGB;solid-color:#000000;solid-opacity:1;fill:#ffffff;fill-opacity:1;fill-rule:nonzero;stroke:#000000;stroke-width:0.5;stroke-linecap:butt;stroke-linejoin:miter;stroke-miterlimit:4;stroke-dasharray:none;stroke-dashoffset:0;stroke-opacity:1;color-rendering:auto;image-rendering:auto;shape-rendering:auto;text-rendering:auto;enable-background:accumulate" />
      <g
         id="g6205"
         transform="translate(150.05256,-142.74919)">
        <g
           transform="translate(3.2510165,0)"
           id="g6207">
          <g
             transform="matrix(1.1725956,0,0,1.2190405,197.74343,498.89467)"
             id="g6209"
             style="font-style:normal;font-weight:normal;font-size:55.95628357px;line-height:125%;font-family:Sans;letter-spacing:0px;word-spacing:0px;fill:#000000;fill-opacity:1;stroke:none">
            <path
               inkscape:connector-curvature="0"
               id="path6211"
               style="font-variant:normal;font-stretch:normal;font-family:Comfortaa;-inkscape-font-specification:Comfortaa;fill:#000000"
               d="m 165.6081,269.49125 0,17.48634 8.74317,0 c 2.42257,2e-5 4.48085,-0.84697 6.17486,-2.54099 1.71218,-1.71217 2.56828,-3.77957 2.56831,-6.20218 -3e-5,-2.42256 -0.85613,-4.48084 -2.56831,-6.17487 -1.69401,-1.71216 -3.75229,-2.56826 -6.17486,-2.5683 l -8.74317,0 m -2.1858,-4.37159 10.92897,0 c 3.62475,5e-5 6.71218,1.2842 9.26229,3.85246 2.56828,2.55013 3.85243,5.63756 3.85246,9.2623 -3e-5,3.6248 -1.27507,6.71223 -3.82514,9.26229 -1.18399,1.18399 -2.46814,2.08563 -3.85246,2.70492 l 9.5082,15.2459 c 0.23677,0.34609 0.35516,0.74682 0.35519,1.20219 -3e-5,0.60109 -0.21861,1.12022 -0.65573,1.55737 -0.41898,0.41895 -0.929,0.62842 -1.53006,0.62842 -0.78327,0 -1.42079,-0.37341 -1.91257,-1.12022 l -10.2459,-16.39344 c -0.30967,0.0182 -0.62843,0.0273 -0.95628,0.0273 l -8.74317,0 0,15.30055 c -1e-5,0.60109 -0.21859,1.12022 -0.65574,1.55737 -0.41895,0.41895 -0.92897,0.62842 -1.53006,0.62842 -0.60109,0 -1.12022,-0.20947 -1.55737,-0.62842 -0.41895,-0.43715 -0.62842,-0.95628 -0.62842,-1.55737 l 0,-39.34426 c 0,-0.60105 0.20947,-1.11107 0.62842,-1.53006 0.43715,-0.43711 0.95628,-0.65569 1.55737,-0.65574" />
            <path
               inkscape:connector-curvature="0"
               id="path6213"
               style="-inkscape-font-specification:Comfortaa;fill:#000000"
               d="m 201.12722,271.67704 c -1e-5,0.74685 -0.27323,1.39348 -0.81967,1.93989 -0.52824,0.52827 -1.16576,0.79239 -1.91257,0.79235 -0.74682,4e-5 -1.39345,-0.26408 -1.93989,-0.79235 -0.52824,-0.54641 -0.79235,-1.19304 -0.79235,-1.93989 0,-0.74677 0.26411,-1.3843 0.79235,-1.91257 0.54644,-0.54641 1.19307,-0.81963 1.93989,-0.81967 0.74681,4e-5 1.38433,0.27326 1.91257,0.81967 0.54644,0.52827 0.81966,1.1658 0.81967,1.91257 m -4.91803,8.74317 c -1e-5,-0.60106 0.20947,-1.11108 0.62841,-1.53005 0.43716,-0.43713 0.95628,-0.65571 1.55738,-0.65574 0.60109,3e-5 1.1111,0.21861 1.53006,0.65574 0.43715,0.41897 0.65573,0.92899 0.65573,1.53005 l 0,26.22951 c 0,0.60109 -0.21858,1.12022 -0.65573,1.55737 -0.41896,0.41895 -0.92897,0.62842 -1.53006,0.62842 -0.6011,0 -1.12022,-0.20947 -1.55738,-0.62842 -0.41894,-0.43715 -0.62842,-0.95628 -0.62841,-1.55737 l 0,-26.22951" />
            <path
               inkscape:connector-curvature="0"
               id="path6215"
               style="-inkscape-font-specification:Comfortaa;fill:#000000"
               d="m 233.36766,293.53496 c -3e-5,-3.02366 -1.0656,-5.60107 -3.19672,-7.73224 -2.13117,-2.13112 -4.70858,-3.19669 -7.73224,-3.19672 -3.0237,3e-5 -5.60111,1.0656 -7.73224,3.19672 -2.13116,2.13117 -3.19673,4.70858 -3.19672,7.73224 -1e-5,3.0237 1.06556,5.60111 3.19672,7.73224 2.13113,2.13116 4.70854,3.19673 7.73224,3.19673 3.02366,0 5.60107,-1.06557 7.73224,-3.19673 2.13112,-2.13113 3.19669,-4.70854 3.19672,-7.73224 m 0,-26.28415 c -3e-5,-0.60105 0.20944,-1.11107 0.62841,-1.53005 0.43713,-0.43712 0.95626,-0.6557 1.55738,-0.65574 0.60106,4e-5 1.11108,0.21862 1.53006,0.65574 0.43712,0.41898 0.6557,0.929 0.65573,1.53005 l 0,26.28415 c -3e-5,4.22588 -1.49365,7.83243 -4.48087,10.81968 -2.98728,2.98725 -6.59383,4.48087 -10.81967,4.48087 -4.22588,0 -7.83244,-1.49362 -10.81968,-4.48087 -2.98725,-2.98725 -4.48087,-6.5938 -4.48087,-10.81968 0,-4.22584 1.49362,-7.8324 4.48087,-10.81967 2.98724,-2.98722 6.5938,-4.48084 10.81968,-4.48087 4.22584,3e-5 7.83239,1.49365 10.81967,4.48087 0.0364,0.0365 0.0728,0.0729 0.10929,0.10929 l 0,-15.57377" />
            <path
               inkscape:connector-curvature="0"
               id="path6217"
               style="font-variant:normal;font-stretch:normal;font-family:Comfortaa;-inkscape-font-specification:Comfortaa;fill:#000000"
               d="m 272.71192,293.53496 c -3e-5,4.22588 -1.49366,7.83243 -4.48088,10.81968 -2.98727,2.98725 -6.59382,4.48087 -10.81967,4.48087 -4.22588,0 -7.83243,-1.49362 -10.81967,-4.48087 -2.98725,-2.98725 -4.48088,-6.5938 -4.48087,-10.81968 -1e-5,-4.22584 1.49362,-7.8324 4.48087,-10.81967 2.98724,-2.98722 6.59379,-4.48084 10.81967,-4.48087 4.22585,3e-5 7.8324,1.49365 10.81967,4.48087 2.98722,2.98727 4.48085,6.59383 4.48088,10.81967 M 257.41137,282.606 c -3.02369,3e-5 -5.6011,1.0656 -7.73224,3.19672 -2.13115,2.13117 -3.19673,4.70858 -3.19672,7.73224 -10e-6,3.0237 1.06557,5.60111 3.19672,7.73224 2.13114,2.13116 4.70855,3.19673 7.73224,3.19673 3.02366,0 5.60107,-1.06557 7.73224,-3.19673 2.13112,-2.13113 3.1967,-4.70854 3.19672,-7.73224 -2e-5,-3.02366 -1.0656,-5.60107 -3.19672,-7.73224 -2.13117,-2.13112 -4.70858,-3.19669 -7.73224,-3.19672" />
            <path
               inkscape:connector-curvature="0"
               id="path6219"
               style="font-variant:normal;font-stretch:normal;font-family:Comfortaa;-inkscape-font-specification:Comfortaa;fill:#000000"
               d="m 277.08351,280.42021 c 0,-0.60106 0.20947,-1.11108 0.62842,-1.53005 0.43715,-0.43713 0.95628,-0.65571 1.55737,-0.65574 0.60109,3e-5 1.11111,0.21861 1.53006,0.65574 0.43715,0.41897 0.65573,0.92899 0.65574,1.53005 l 0,1.77596 c 2.73223,-2.64114 6.01091,-3.96172 9.83606,-3.96175 3.91619,3e-5 7.25863,1.39347 10.02733,4.18033 2.78685,2.76869 4.18029,6.11113 4.18032,10.02732 l 0,14.20765 c -3e-5,0.60109 -0.21861,1.12022 -0.65573,1.55737 -0.41898,0.41895 -0.929,0.62842 -1.53006,0.62842 -0.60112,0 -1.12025,-0.20947 -1.55738,-0.62842 -0.41897,-0.43715 -0.62844,-0.95628 -0.62841,-1.55737 l 0,-14.20765 c -3e-5,-2.71401 -0.96542,-5.0273 -2.89618,-6.93989 -1.91259,-1.93076 -4.22588,-2.89615 -6.93989,-2.89618 -2.71404,3e-5 -5.03644,0.96542 -6.96721,2.89618 -1.91258,1.91259 -2.86886,4.22588 -2.86885,6.93989 l 0,14.20765 c -1e-5,0.60109 -0.21859,1.12022 -0.65574,1.55737 -0.41895,0.41895 -0.92897,0.62842 -1.53006,0.62842 -0.60109,0 -1.12022,-0.20947 -1.55737,-0.62842 -0.41895,-0.43715 -0.62842,-0.95628 -0.62842,-1.55737 l 0,-26.22951" />
          </g>
          <g
             id="g6221"
             transform="matrix(0.43619288,0,0,0.43619288,241.79268,475.38338)">
            <path
               inkscape:connector-curvature="0"
               id="path6223"
               d="m 184.45344,733.60888 c -37.69254,0.19932 -74.5597,19.26884 -96.99491,54.13263 -13.825717,21.48504 -20.172818,45.84127 -19.750679,69.86571 l 234.480489,0 c 0.63085,-40.01408 -17.65856,-79.51971 -52.03351,-103.42721 l -3.84749,-2.55229 c -19.28973,-12.31037 -40.70925,-18.13062 -61.8539,-18.01884 z m -47.52643,68.83718 c 2.80506,-0.0828 5.64588,0.65048 8.2081,2.28568 l 0.51301,0.30477 c 6.85235,4.76566 8.68827,14.3998 4.10405,21.52344 -4.58411,7.12377 -13.85106,9.07043 -20.70342,4.30477 -6.85235,-4.76581 -8.68827,-14.43796 -4.10405,-21.56161 2.7863,-4.32987 7.30732,-6.7182 11.98231,-6.85705 z m 89.55625,0 c 2.80506,-0.0828 5.68247,0.65048 8.2448,2.28568 l 0.47631,0.30477 c 6.85234,4.76566 8.68827,14.3998 4.10404,21.52344 -4.5841,7.12377 -13.85105,9.07043 -20.70342,4.30477 -6.85234,-4.76581 -8.68826,-14.43796 -4.10404,-21.56161 2.7863,-4.32987 7.30732,-6.7182 11.98231,-6.85705 z"
               style="fill:#fb8b00;fill-opacity:1;stroke:none"
               inkscape:export-filename="/home/cho2/Gambar/ridon.png"
               inkscape:export-xdpi="90"
               inkscape:export-ydpi="90" />
            <path
               id="path6225"
               d="m 64.793859,915.89053 c 1.173875,-1.12284 6.751389,-5.84963 12.394469,-10.5039 5.643069,-4.65438 15.546734,-16.30587 22.008385,-25.89245 25.930907,-38.47187 50.279077,-49.7094 75.683857,-34.93034 l 7.64091,4.44507 7.2297,-4.57063 c 12.34874,-7.8074 23.41033,-8.24065 37.64094,-1.47418 15.19894,7.22691 21.28632,13.10215 35.74172,34.49625 10.58692,15.66893 21.02658,27.01689 33.24937,36.14219 5.20922,3.88895 4.88524,3.94282 -16.02608,2.6626 -47.41433,-2.90276 -66.12118,-8.89161 -83.99538,-26.88974 -6.50809,-6.55327 -13.22983,-11.91505 -14.93709,-11.91505 -1.70705,0 -6.36949,3.966 -10.36052,8.81335 -9.32357,11.32382 -33.47744,23.68528 -51.846,26.53354 -22.041798,3.41792 -56.834766,5.38908 -54.424281,3.08329 z"
               style="fill:#050505"
               inkscape:connector-curvature="0"
               inkscape:export-filename="/home/cho2/Gambar/ridon.png"
               inkscape:export-xdpi="90"
               inkscape:export-ydpi="90" />
          </g>
        </g>
        <text
           sodipodi:linespacing="125%"
           id="text6227"
           y="900.83929"
           x="270.89594"
           style="font-style:normal;font-weight:normal;font-size:40px;line-height:125%;font-family:sans-serif;letter-spacing:0px;word-spacing:0px;fill:#000000;fill-opacity:1;stroke:none;stroke-width:1px;stroke-linecap:butt;stroke-linejoin:miter;stroke-opacity:1"
           xml:space="preserve"><tspan
             style="font-style:normal;font-variant:normal;font-weight:normal;font-stretch:normal;font-size:20px;font-family:'Open Sans';-inkscape-font-specification:'Open Sans'"
             y="900.83929"
             x="270.89594"
             id="tspan6229"
             sodipodi:role="line">Begadang Membangun Bangsa</tspan></text>
      </g>
    </g>
    <text
       xml:space="preserve"
       style="font-style:normal;font-weight:normal;font-size:40px;line-height:125%;font-family:sans-serif;letter-spacing:0px;word-spacing:0px;fill:#000000;fill-opacity:1;stroke:none;stroke-width:1px;stroke-linecap:butt;stroke-linejoin:miter;stroke-opacity:1"
       x="413.26294"
       y="832.93951"
       id="text6233"
       sodipodi:linespacing="125%"><tspan
         sodipodi:role="line"
         id="tspan6235"
         x="413.26294"
         y="832.93951">85mm x 35mm</tspan></text>
  </g>
</svg>
