<?xml version="1.0" encoding="UTF-8" standalone="no"?>
<!-- Created with Inkscape (http://www.inkscape.org/) -->

<svg
   xmlns:dc="http://purl.org/dc/elements/1.1/"
   xmlns:cc="http://creativecommons.org/ns#"
   xmlns:rdf="http://www.w3.org/1999/02/22-rdf-syntax-ns#"
   xmlns:svg="http://www.w3.org/2000/svg"
   xmlns="http://www.w3.org/2000/svg"
   xmlns:sodipodi="http://sodipodi.sourceforge.net/DTD/sodipodi-0.dtd"
   xmlns:inkscape="http://www.inkscape.org/namespaces/inkscape"
   width="140.71181mm"
   height="182.86584mm"
   viewBox="0 0 140.71181 182.86584"
   version="1.1"
   id="svg8"
   inkscape:version="0.92.3pre0 (0ab9bec, 2018-03-03)"
   sodipodi:docname="hexagonal-stickers.svg">
  <defs
     id="defs2" />
  <sodipodi:namedview
     id="base"
     pagecolor="#ffffff"
     bordercolor="#666666"
     borderopacity="1.0"
     inkscape:pageopacity="0.0"
     inkscape:pageshadow="2"
     inkscape:zoom="0.42334352"
     inkscape:cx="90.683066"
     inkscape:cy="293.23706"
     inkscape:document-units="mm"
     inkscape:current-layer="layer1"
     showgrid="false"
     inkscape:pagecheckerboard="true"
     showguides="false"
     inkscape:guide-bbox="true"
     inkscape:snap-global="false"
     inkscape:window-width="1366"
     inkscape:window-height="717"
     inkscape:window-x="0"
     inkscape:window-y="23"
     inkscape:window-maximized="1">
    <sodipodi:guide
       position="37.92835,84.626954"
       orientation="1,0"
       id="guide523"
       inkscape:locked="false" />
  </sodipodi:namedview>
  <metadata
     id="metadata5">
    <rdf:RDF>
      <cc:Work
         rdf:about="">
        <dc:format>image/svg+xml</dc:format>
        <dc:type
           rdf:resource="http://purl.org/dc/dcmitype/StillImage" />
        <dc:title></dc:title>
      </cc:Work>
    </rdf:RDF>
  </metadata>
  <g
     inkscape:label="Layer 1"
     inkscape:groupmode="layer"
     id="layer1"
     transform="translate(-32.117535,5.9013398)">
    <g
       id="ridon-light"
       transform="translate(2.1166667)"
       inkscape:label="#g500"
       inkscape:export-xdpi="149.86002"
       inkscape:export-ydpi="149.86002">
      <path
         inkscape:transform-center-y="-8.7203766"
         d="m 163.4061,74.837551 -30.31089,17.5 -30.31088,-17.5 0,-35 30.31088,-17.5 30.31089,17.5 z"
         inkscape:randomized="0"
         inkscape:rounded="0"
         inkscape:flatsided="true"
         sodipodi:arg2="1.0471976"
         sodipodi:arg1="0.52359878"
         sodipodi:r2="17.499998"
         sodipodi:r1="35"
         sodipodi:cy="57.337551"
         sodipodi:cx="133.09521"
         sodipodi:sides="6"
         id="path94"
         style="opacity:1;vector-effect:none;fill:#f2f2f2;fill-opacity:1;fill-rule:nonzero;stroke:#999999;stroke-width:0.50258407;stroke-linecap:butt;stroke-linejoin:miter;stroke-miterlimit:4;stroke-dasharray:none;stroke-dashoffset:0;stroke-opacity:1;paint-order:stroke markers fill"
         sodipodi:type="star"
         transform="matrix(0.98974332,0,0,1,1.0542263,0)" />
      <g
         transform="matrix(0.74632032,0,0,0.74632032,1.2026597,-45.525527)"
         id="g86">
        <path
           inkscape:connector-curvature="0"
           id="path3234"
           d="m 176.536,109.85898 c -8.50498,0.0433 -16.82371,4.18219 -21.88601,11.74916 -3.11965,4.66321 -4.55182,9.94958 -4.45657,15.16394 h 52.90839 c 0.14234,-8.68482 -3.9845,-17.25928 -11.74089,-22.44826 l -0.86815,-0.55396 c -4.35255,-2.67189 -9.18567,-3.93514 -13.95677,-3.91088 z m -10.7239,14.9407 c 0.63293,-0.018 1.27394,0.14118 1.85208,0.49609 l 0.11575,0.0661 c 1.54618,1.03436 1.96043,3.12539 0.92605,4.67154 -1.03437,1.54617 -3.12537,1.96868 -4.67154,0.93432 -1.54617,-1.03439 -1.96043,-3.13367 -0.92604,-4.67982 0.6287,-0.93977 1.64883,-1.45814 2.7037,-1.48828 z m 20.20754,0 c 0.63294,-0.018 1.2822,0.14118 1.86037,0.49609 l 0.10747,0.0661 c 1.54618,1.03436 1.96043,3.12539 0.92605,4.67154 -1.03437,1.54617 -3.12537,1.96868 -4.67154,0.93432 -1.54617,-1.03439 -1.96043,-3.13367 -0.92604,-4.67982 0.6287,-0.93977 1.64883,-1.45814 2.70369,-1.48828 z"
           style="fill:#fb8b00;fill-opacity:1;stroke:none;stroke-width:0.26458332"
           inkscape:export-filename="/home/cho2/Gambar/ridon.png"
           inkscape:export-xdpi="90"
           inkscape:export-ydpi="90" />
        <g
           style="font-style:normal;font-weight:normal;font-size:55.95628357px;line-height:125%;font-family:Sans;letter-spacing:0px;word-spacing:0px;fill:#000000;fill-opacity:1;stroke:none"
           id="text3244"
           transform="matrix(0.26458333,0,0,0.26458333,114.13051,84.0826)">
          <path
             inkscape:connector-curvature="0"
             d="m 165.6081,269.49125 v 17.48634 h 8.74317 c 2.42257,2e-5 4.48085,-0.84697 6.17486,-2.54099 1.71218,-1.71217 2.56828,-3.77957 2.56831,-6.20218 -3e-5,-2.42256 -0.85613,-4.48084 -2.56831,-6.17487 -1.69401,-1.71216 -3.75229,-2.56826 -6.17486,-2.5683 h -8.74317 m -2.1858,-4.37159 h 10.92897 c 3.62475,5e-5 6.71218,1.2842 9.26229,3.85246 2.56828,2.55013 3.85243,5.63756 3.85246,9.2623 -3e-5,3.6248 -1.27507,6.71223 -3.82514,9.26229 -1.18399,1.18399 -2.46814,2.08563 -3.85246,2.70492 l 9.5082,15.2459 c 0.23677,0.34609 0.35516,0.74682 0.35519,1.20219 -3e-5,0.60109 -0.21861,1.12022 -0.65573,1.55737 -0.41898,0.41895 -0.929,0.62842 -1.53006,0.62842 -0.78327,0 -1.42079,-0.37341 -1.91257,-1.12022 l -10.2459,-16.39344 c -0.30967,0.0182 -0.62843,0.0273 -0.95628,0.0273 h -8.74317 v 15.30055 c -1e-5,0.60109 -0.21859,1.12022 -0.65574,1.55737 -0.41895,0.41895 -0.92897,0.62842 -1.53006,0.62842 -0.60109,0 -1.12022,-0.20947 -1.55737,-0.62842 -0.41895,-0.43715 -0.62842,-0.95628 -0.62842,-1.55737 v -39.34426 c 0,-0.60105 0.20947,-1.11107 0.62842,-1.53006 0.43715,-0.43711 0.95628,-0.65569 1.55737,-0.65574"
             style="font-variant:normal;font-stretch:normal;font-family:Comfortaa;-inkscape-font-specification:Comfortaa;fill:#000000"
             id="path3005" />
          <path
             inkscape:connector-curvature="0"
             d="m 201.12722,271.67704 c -1e-5,0.74685 -0.27323,1.39348 -0.81967,1.93989 -0.52824,0.52827 -1.16576,0.79239 -1.91257,0.79235 -0.74682,4e-5 -1.39345,-0.26408 -1.93989,-0.79235 -0.52824,-0.54641 -0.79235,-1.19304 -0.79235,-1.93989 0,-0.74677 0.26411,-1.3843 0.79235,-1.91257 0.54644,-0.54641 1.19307,-0.81963 1.93989,-0.81967 0.74681,4e-5 1.38433,0.27326 1.91257,0.81967 0.54644,0.52827 0.81966,1.1658 0.81967,1.91257 m -4.91803,8.74317 c -1e-5,-0.60106 0.20947,-1.11108 0.62841,-1.53005 0.43716,-0.43713 0.95628,-0.65571 1.55738,-0.65574 0.60109,3e-5 1.1111,0.21861 1.53006,0.65574 0.43715,0.41897 0.65573,0.92899 0.65573,1.53005 v 26.22951 c 0,0.60109 -0.21858,1.12022 -0.65573,1.55737 -0.41896,0.41895 -0.92897,0.62842 -1.53006,0.62842 -0.6011,0 -1.12022,-0.20947 -1.55738,-0.62842 -0.41894,-0.43715 -0.62842,-0.95628 -0.62841,-1.55737 v -26.22951"
             style="-inkscape-font-specification:Comfortaa;fill:#000000"
             id="path3007" />
          <path
             inkscape:connector-curvature="0"
             d="m 233.36766,293.53496 c -3e-5,-3.02366 -1.0656,-5.60107 -3.19672,-7.73224 -2.13117,-2.13112 -4.70858,-3.19669 -7.73224,-3.19672 -3.0237,3e-5 -5.60111,1.0656 -7.73224,3.19672 -2.13116,2.13117 -3.19673,4.70858 -3.19672,7.73224 -1e-5,3.0237 1.06556,5.60111 3.19672,7.73224 2.13113,2.13116 4.70854,3.19673 7.73224,3.19673 3.02366,0 5.60107,-1.06557 7.73224,-3.19673 2.13112,-2.13113 3.19669,-4.70854 3.19672,-7.73224 m 0,-26.28415 c -3e-5,-0.60105 0.20944,-1.11107 0.62841,-1.53005 0.43713,-0.43712 0.95626,-0.6557 1.55738,-0.65574 0.60106,4e-5 1.11108,0.21862 1.53006,0.65574 0.43712,0.41898 0.6557,0.929 0.65573,1.53005 v 26.28415 c -3e-5,4.22588 -1.49365,7.83243 -4.48087,10.81968 -2.98728,2.98725 -6.59383,4.48087 -10.81967,4.48087 -4.22588,0 -7.83244,-1.49362 -10.81968,-4.48087 -2.98725,-2.98725 -4.48087,-6.5938 -4.48087,-10.81968 0,-4.22584 1.49362,-7.8324 4.48087,-10.81967 2.98724,-2.98722 6.5938,-4.48084 10.81968,-4.48087 4.22584,3e-5 7.83239,1.49365 10.81967,4.48087 0.0364,0.0365 0.0728,0.0729 0.10929,0.10929 v -15.57377"
             style="-inkscape-font-specification:Comfortaa;fill:#000000"
             id="path3009" />
          <path
             inkscape:connector-curvature="0"
             d="m 272.71192,293.53496 c -3e-5,4.22588 -1.49366,7.83243 -4.48088,10.81968 -2.98727,2.98725 -6.59382,4.48087 -10.81967,4.48087 -4.22588,0 -7.83243,-1.49362 -10.81967,-4.48087 -2.98725,-2.98725 -4.48088,-6.5938 -4.48087,-10.81968 -1e-5,-4.22584 1.49362,-7.8324 4.48087,-10.81967 2.98724,-2.98722 6.59379,-4.48084 10.81967,-4.48087 4.22585,3e-5 7.8324,1.49365 10.81967,4.48087 2.98722,2.98727 4.48085,6.59383 4.48088,10.81967 M 257.41137,282.606 c -3.02369,3e-5 -5.6011,1.0656 -7.73224,3.19672 -2.13115,2.13117 -3.19673,4.70858 -3.19672,7.73224 -10e-6,3.0237 1.06557,5.60111 3.19672,7.73224 2.13114,2.13116 4.70855,3.19673 7.73224,3.19673 3.02366,0 5.60107,-1.06557 7.73224,-3.19673 2.13112,-2.13113 3.1967,-4.70854 3.19672,-7.73224 -2e-5,-3.02366 -1.0656,-5.60107 -3.19672,-7.73224 -2.13117,-2.13112 -4.70858,-3.19669 -7.73224,-3.19672"
             style="font-variant:normal;font-stretch:normal;font-family:Comfortaa;-inkscape-font-specification:Comfortaa;fill:#000000"
             id="path3011" />
          <path
             inkscape:connector-curvature="0"
             d="m 277.08351,280.42021 c 0,-0.60106 0.20947,-1.11108 0.62842,-1.53005 0.43715,-0.43713 0.95628,-0.65571 1.55737,-0.65574 0.60109,3e-5 1.11111,0.21861 1.53006,0.65574 0.43715,0.41897 0.65573,0.92899 0.65574,1.53005 v 1.77596 c 2.73223,-2.64114 6.01091,-3.96172 9.83606,-3.96175 3.91619,3e-5 7.25863,1.39347 10.02733,4.18033 2.78685,2.76869 4.18029,6.11113 4.18032,10.02732 v 14.20765 c -3e-5,0.60109 -0.21861,1.12022 -0.65573,1.55737 -0.41898,0.41895 -0.929,0.62842 -1.53006,0.62842 -0.60112,0 -1.12025,-0.20947 -1.55738,-0.62842 -0.41897,-0.43715 -0.62844,-0.95628 -0.62841,-1.55737 v -14.20765 c -3e-5,-2.71401 -0.96542,-5.0273 -2.89618,-6.93989 -1.91259,-1.93076 -4.22588,-2.89615 -6.93989,-2.89618 -2.71404,3e-5 -5.03644,0.96542 -6.96721,2.89618 -1.91258,1.91259 -2.86886,4.22588 -2.86885,6.93989 v 14.20765 c -1e-5,0.60109 -0.21859,1.12022 -0.65574,1.55737 -0.41895,0.41895 -0.92897,0.62842 -1.53006,0.62842 -0.60109,0 -1.12022,-0.20947 -1.55737,-0.62842 -0.41895,-0.43715 -0.62842,-0.95628 -0.62842,-1.55737 v -26.22951"
             style="font-variant:normal;font-stretch:normal;font-family:Comfortaa;-inkscape-font-specification:Comfortaa;fill:#000000"
             id="path3013" />
        </g>
        <path
           id="path3250"
           d="m 149.53591,149.42213 c 0.26487,-0.24371 1.52339,-1.26963 2.7967,-2.27981 1.2733,-1.01021 3.50798,-3.53909 4.96599,-5.6198 5.85107,-8.35009 11.34501,-10.78913 17.07737,-7.58143 l 1.7241,0.96478 1.63132,-0.99203 c 2.78638,-1.69455 5.28232,-1.78858 8.49333,-0.31996 3.42951,1.56856 4.80306,2.84374 8.06479,7.48721 2.38885,3.40084 4.74446,5.86385 7.50242,7.84444 1.17541,0.84408 1.10231,0.85577 -3.61614,0.5779 -10.69861,-0.63002 -14.91964,-1.92987 -18.95279,-5.83625 -1.46849,-1.42235 -2.98519,-2.58609 -3.37042,-2.58609 -0.38518,0 -1.43721,0.86079 -2.33775,1.91288 -2.10378,2.45777 -7.55388,5.14075 -11.69858,5.75895 -4.97353,0.74184 -12.82425,1.16967 -12.28034,0.66921 z"
           style="fill:#050505;stroke-width:0.26458332"
           inkscape:connector-curvature="0"
           inkscape:export-filename="/home/cho2/Gambar/ridon.png"
           inkscape:export-xdpi="90"
           inkscape:export-ydpi="90" />
      </g>
    </g>
    <g
       id="ridon-dark"
       transform="translate(-2.1166667)"
       inkscape:label="#g521"
       inkscape:export-xdpi="149.86002"
       inkscape:export-ydpi="149.86002">
      <path
         inkscape:transform-center-y="-8.7203766"
         d="m 102.78433,74.837551 -30.310888,17.5 -30.310889,-17.5 0,-35 30.310889,-17.5 30.310888,17.5 z"
         inkscape:randomized="0"
         inkscape:rounded="0"
         inkscape:flatsided="true"
         sodipodi:arg2="1.0471976"
         sodipodi:arg1="0.52359878"
         sodipodi:r2="17.499998"
         sodipodi:r1="35"
         sodipodi:cy="57.337551"
         sodipodi:cx="72.473442"
         sodipodi:sides="6"
         id="path90"
         style="opacity:1;vector-effect:none;fill:#333333;fill-opacity:1;fill-rule:nonzero;stroke:none;stroke-width:3.01019168;stroke-linecap:butt;stroke-linejoin:miter;stroke-miterlimit:4;stroke-dasharray:none;stroke-dashoffset:0;stroke-opacity:1;paint-order:stroke markers fill"
         sodipodi:type="star"
         transform="matrix(0.98974332,0,0,1,0.43244798,0)" />
      <g
         transform="matrix(0.74678364,0,0,0.74678364,-105.80493,-45.589385)"
         id="g113">
        <path
           style="fill:#fb8b00;fill-opacity:1;stroke-width:0.26458332"
           d="m 238.52409,109.85898 c -8.50498,0.0433 -16.82372,4.18219 -21.88599,11.74916 -3.11967,4.66321 -4.55184,9.94958 -4.45659,15.16394 h 52.90842 c 0.14232,-8.68482 -3.98452,-17.25928 -11.74089,-22.44826 l -0.86818,-0.55396 c -4.35255,-2.67189 -9.18567,-3.93514 -13.95677,-3.91088 z m -10.72388,14.9407 c 0.63291,-0.018 1.27392,0.14118 1.85208,0.49609 l 0.11576,0.0661 c 1.54615,1.03436 1.96041,3.12539 0.92604,4.67154 -1.03439,1.54617 -3.12539,1.96868 -4.67156,0.93432 -1.54617,-1.03439 -1.96043,-3.13367 -0.92604,-4.67982 0.6287,-0.93977 1.64883,-1.45814 2.70372,-1.48828 z m 20.20755,0 c 0.63291,-0.018 1.28218,0.14118 1.86034,0.49609 l 0.1075,0.0661 c 1.54615,1.03436 1.96041,3.12539 0.92604,4.67154 -1.03438,1.54617 -3.12539,1.96868 -4.67156,0.93432 -1.54617,-1.03439 -1.9604,-3.13367 -0.92604,-4.67982 0.6287,-0.93977 1.64883,-1.45814 2.70372,-1.48828 z"
           id="path3236"
           inkscape:connector-curvature="0"
           inkscape:export-filename="/home/cho2/Gambar/ridon.png"
           inkscape:export-xdpi="90"
           inkscape:export-ydpi="90" />
        <g
           style="font-style:normal;font-weight:normal;font-size:55.95628357px;line-height:125%;font-family:Sans;letter-spacing:0px;word-spacing:0px;fill:#ffffff;fill-opacity:1;stroke:none"
           id="text3238"
           transform="matrix(0.26458333,0,0,0.26458333,114.13051,84.0826)">
          <path
             inkscape:connector-curvature="0"
             d="m 401.6081,269.49125 v 17.48634 h 8.74317 c 2.42257,2e-5 4.48085,-0.84697 6.17486,-2.54099 1.71218,-1.71217 2.56828,-3.77957 2.56831,-6.20218 -3e-5,-2.42256 -0.85613,-4.48084 -2.56831,-6.17487 -1.69401,-1.71216 -3.75229,-2.56826 -6.17486,-2.5683 h -8.74317 m -2.1858,-4.37159 h 10.92897 c 3.62475,5e-5 6.71218,1.2842 9.26229,3.85246 2.56828,2.55013 3.85243,5.63756 3.85246,9.2623 -3e-5,3.6248 -1.27507,6.71223 -3.82514,9.26229 -1.18399,1.18399 -2.46814,2.08563 -3.85246,2.70492 l 9.5082,15.2459 c 0.23677,0.34609 0.35516,0.74682 0.35519,1.20219 -3e-5,0.60109 -0.21861,1.12022 -0.65573,1.55737 -0.41898,0.41895 -0.929,0.62842 -1.53006,0.62842 -0.78327,0 -1.42079,-0.37341 -1.91257,-1.12022 l -10.2459,-16.39344 c -0.30967,0.0182 -0.62843,0.0273 -0.95628,0.0273 h -8.74317 v 15.30055 c -10e-6,0.60109 -0.21859,1.12022 -0.65574,1.55737 -0.41895,0.41895 -0.92897,0.62842 -1.53006,0.62842 -0.60109,0 -1.12022,-0.20947 -1.55737,-0.62842 -0.41895,-0.43715 -0.62842,-0.95628 -0.62842,-1.55737 v -39.34426 c 0,-0.60105 0.20947,-1.11107 0.62842,-1.53006 0.43715,-0.43711 0.95628,-0.65569 1.55737,-0.65574"
             style="font-variant:normal;font-stretch:normal;font-family:Comfortaa;-inkscape-font-specification:Comfortaa;fill:#ffffff"
             id="path2994" />
          <path
             inkscape:connector-curvature="0"
             d="m 437.12722,271.67704 c -1e-5,0.74685 -0.27323,1.39348 -0.81967,1.93989 -0.52824,0.52827 -1.16576,0.79239 -1.91257,0.79235 -0.74682,4e-5 -1.39345,-0.26408 -1.93989,-0.79235 -0.52824,-0.54641 -0.79235,-1.19304 -0.79235,-1.93989 0,-0.74677 0.26411,-1.3843 0.79235,-1.91257 0.54644,-0.54641 1.19307,-0.81963 1.93989,-0.81967 0.74681,4e-5 1.38433,0.27326 1.91257,0.81967 0.54644,0.52827 0.81966,1.1658 0.81967,1.91257 m -4.91803,8.74317 c -10e-6,-0.60106 0.20947,-1.11108 0.62841,-1.53005 0.43716,-0.43713 0.95628,-0.65571 1.55738,-0.65574 0.60109,3e-5 1.1111,0.21861 1.53006,0.65574 0.43715,0.41897 0.65573,0.92899 0.65573,1.53005 v 26.22951 c 0,0.60109 -0.21858,1.12022 -0.65573,1.55737 -0.41896,0.41895 -0.92897,0.62842 -1.53006,0.62842 -0.6011,0 -1.12022,-0.20947 -1.55738,-0.62842 -0.41894,-0.43715 -0.62842,-0.95628 -0.62841,-1.55737 v -26.22951"
             style="fill:#ffffff"
             id="path2996" />
          <path
             inkscape:connector-curvature="0"
             d="m 469.36766,293.53496 c -3e-5,-3.02366 -1.0656,-5.60107 -3.19672,-7.73224 -2.13117,-2.13112 -4.70858,-3.19669 -7.73224,-3.19672 -3.0237,3e-5 -5.60111,1.0656 -7.73224,3.19672 -2.13116,2.13117 -3.19673,4.70858 -3.19672,7.73224 -1e-5,3.0237 1.06556,5.60111 3.19672,7.73224 2.13113,2.13116 4.70854,3.19673 7.73224,3.19673 3.02366,0 5.60107,-1.06557 7.73224,-3.19673 2.13112,-2.13113 3.19669,-4.70854 3.19672,-7.73224 m 0,-26.28415 c -3e-5,-0.60105 0.20944,-1.11107 0.62841,-1.53005 0.43713,-0.43712 0.95626,-0.6557 1.55738,-0.65574 0.60106,4e-5 1.11108,0.21862 1.53006,0.65574 0.43712,0.41898 0.6557,0.929 0.65573,1.53005 v 26.28415 c -3e-5,4.22588 -1.49365,7.83243 -4.48087,10.81968 -2.98728,2.98725 -6.59383,4.48087 -10.81967,4.48087 -4.22588,0 -7.83244,-1.49362 -10.81968,-4.48087 -2.98725,-2.98725 -4.48087,-6.5938 -4.48087,-10.81968 0,-4.22584 1.49362,-7.8324 4.48087,-10.81967 2.98724,-2.98722 6.5938,-4.48084 10.81968,-4.48087 4.22584,3e-5 7.83239,1.49365 10.81967,4.48087 0.0364,0.0365 0.0728,0.0729 0.10929,0.10929 v -15.57377"
             style="fill:#ffffff"
             id="path2998" />
          <path
             inkscape:connector-curvature="0"
             d="m 508.71192,293.53496 c -3e-5,4.22588 -1.49366,7.83243 -4.48088,10.81968 -2.98727,2.98725 -6.59382,4.48087 -10.81967,4.48087 -4.22588,0 -7.83243,-1.49362 -10.81967,-4.48087 -2.98725,-2.98725 -4.48088,-6.5938 -4.48087,-10.81968 -1e-5,-4.22584 1.49362,-7.8324 4.48087,-10.81967 2.98724,-2.98722 6.59379,-4.48084 10.81967,-4.48087 4.22585,3e-5 7.8324,1.49365 10.81967,4.48087 2.98722,2.98727 4.48085,6.59383 4.48088,10.81967 M 493.41137,282.606 c -3.02369,3e-5 -5.6011,1.0656 -7.73224,3.19672 -2.13115,2.13117 -3.19673,4.70858 -3.19672,7.73224 -1e-5,3.0237 1.06557,5.60111 3.19672,7.73224 2.13114,2.13116 4.70855,3.19673 7.73224,3.19673 3.02366,0 5.60107,-1.06557 7.73224,-3.19673 2.13112,-2.13113 3.1967,-4.70854 3.19672,-7.73224 -2e-5,-3.02366 -1.0656,-5.60107 -3.19672,-7.73224 -2.13117,-2.13112 -4.70858,-3.19669 -7.73224,-3.19672"
             style="font-variant:normal;font-stretch:normal;font-family:Comfortaa;-inkscape-font-specification:Comfortaa;fill:#ffffff"
             id="path3000" />
          <path
             inkscape:connector-curvature="0"
             d="m 513.08351,280.42021 c 0,-0.60106 0.20947,-1.11108 0.62842,-1.53005 0.43715,-0.43713 0.95628,-0.65571 1.55737,-0.65574 0.60109,3e-5 1.11111,0.21861 1.53006,0.65574 0.43715,0.41897 0.65573,0.92899 0.65574,1.53005 v 1.77596 c 2.73223,-2.64114 6.01091,-3.96172 9.83606,-3.96175 3.91619,3e-5 7.25863,1.39347 10.02733,4.18033 2.78685,2.76869 4.18029,6.11113 4.18032,10.02732 v 14.20765 c -3e-5,0.60109 -0.21861,1.12022 -0.65573,1.55737 -0.41898,0.41895 -0.929,0.62842 -1.53006,0.62842 -0.60112,0 -1.12025,-0.20947 -1.55738,-0.62842 -0.41897,-0.43715 -0.62844,-0.95628 -0.62841,-1.55737 v -14.20765 c -3e-5,-2.71401 -0.96542,-5.0273 -2.89618,-6.93989 -1.91259,-1.93076 -4.22588,-2.89615 -6.93989,-2.89618 -2.71404,3e-5 -5.03644,0.96542 -6.96721,2.89618 -1.91258,1.91259 -2.86886,4.22588 -2.86885,6.93989 v 14.20765 c -10e-6,0.60109 -0.21859,1.12022 -0.65574,1.55737 -0.41895,0.41895 -0.92897,0.62842 -1.53006,0.62842 -0.60109,0 -1.12022,-0.20947 -1.55737,-0.62842 -0.41895,-0.43715 -0.62842,-0.95628 -0.62842,-1.55737 v -26.22951"
             style="font-variant:normal;font-stretch:normal;font-family:Comfortaa;-inkscape-font-specification:Comfortaa;fill:#ffffff"
             id="path3002" />
        </g>
        <path
           inkscape:connector-curvature="0"
           style="fill:#ffffff;stroke:#ffffff;stroke-width:0.52916664;stroke-miterlimit:4;stroke-dasharray:none"
           d="m 211.82176,149.42213 c 0.26485,-0.24371 1.52339,-1.26963 2.7967,-2.27981 1.27328,-1.01021 3.50798,-3.53909 4.96596,-5.6198 5.8511,-8.35009 11.34504,-10.78913 17.07738,-7.58143 l 1.72413,0.96478 1.63131,-0.99203 c 2.78638,-1.69455 5.28233,-1.78858 8.49334,-0.31996 3.4295,1.56856 4.80306,2.84374 8.06479,7.48721 2.38884,3.40084 4.74446,5.86385 7.50242,7.84444 1.17541,0.84408 1.10231,0.85577 -3.61614,0.5779 -10.69861,-0.63002 -14.91964,-1.92987 -18.95279,-5.83625 -1.46849,-1.42235 -2.98519,-2.58609 -3.37042,-2.58609 -0.38521,0 -1.43725,0.86079 -2.33776,1.91288 -2.10378,2.45777 -7.55388,5.14075 -11.69858,5.75895 -4.97353,0.74184 -12.82425,1.16967 -12.28034,0.66921 z"
           id="path3252"
           inkscape:export-xdpi="90"
           inkscape:export-ydpi="90"
           inkscape:export-filename="/home/cho2/Gambar/ridon.png" />
      </g>
    </g>
    <g
       id="ngobrel-blue"
       inkscape:label="#g663"
       inkscape:export-xdpi="149.86002"
       inkscape:export-ydpi="149.86002">
      <path
         sodipodi:type="star"
         style="opacity:1;vector-effect:none;fill:#0066ff;fill-opacity:1;fill-rule:nonzero;stroke:none;stroke-width:3.01019168;stroke-linecap:butt;stroke-linejoin:miter;stroke-miterlimit:4;stroke-dasharray:none;stroke-dashoffset:0;stroke-opacity:1;paint-order:stroke markers fill"
         id="path448"
         sodipodi:sides="6"
         sodipodi:cx="102.78433"
         sodipodi:cy="4.8375511"
         sodipodi:r1="35"
         sodipodi:r2="17.499998"
         sodipodi:arg1="0.52359878"
         sodipodi:arg2="1.0471976"
         inkscape:flatsided="true"
         inkscape:rounded="0"
         inkscape:randomized="0"
         d="m 133.09522,22.337551 -30.31089,17.5 -30.310887,-17.5 0,-35 30.310887,-17.5 30.31089,17.5 z"
         inkscape:transform-center-y="-8.7203766"
         transform="matrix(0.98974332,0,0,1,33.170892,126.82345)" />
      <g
         transform="translate(32.116666,131.50825)"
         id="g467">
        <g
           transform="matrix(0.13003596,0,0,0.13003596,38.115168,-47.788854)"
           id="g456"
           style="stroke:none">
          <path
             inkscape:connector-curvature="0"
             style="color:#000000;font-style:normal;font-variant:normal;font-weight:normal;font-stretch:normal;font-size:medium;line-height:normal;font-family:sans-serif;text-indent:0;text-align:start;text-decoration:none;text-decoration-line:none;text-decoration-style:solid;text-decoration-color:#000000;letter-spacing:normal;word-spacing:normal;text-transform:none;writing-mode:lr-tb;direction:ltr;baseline-shift:baseline;text-anchor:start;white-space:normal;clip-rule:nonzero;display:inline;overflow:visible;visibility:visible;opacity:1;isolation:auto;mix-blend-mode:normal;color-interpolation:sRGB;color-interpolation-filters:linearRGB;solid-color:#000000;solid-opacity:1;fill:#ffffff;fill-opacity:1;fill-rule:nonzero;stroke:none;stroke-width:0.5;stroke-linecap:square;stroke-linejoin:miter;stroke-miterlimit:4;stroke-dasharray:none;stroke-dashoffset:0;stroke-opacity:1;color-rendering:auto;image-rendering:auto;shape-rendering:auto;text-rendering:auto;enable-background:accumulate"
             d="M 498.86914,211.12109 C 436.1095,211.12183 385.073,262.15833 385.07227,324.91797 v 0.01 0.01 c 0.0474,18.79886 4.90397,37.20805 13.82031,53.71875 l -16.92774,63.16992 63.1211,-16.91601 c 16.52722,8.91956 34.95449,13.77404 53.76953,13.80859 h 0.008 0.006 c 62.7619,8.7e-4 113.80165,-51.03888 113.80078,-113.80078 -7.3e-4,-62.76077 -51.04001,-113.79775 -113.80078,-113.79688 z m 0,15 c 54.65416,-7.6e-4 98.80014,44.14272 98.80078,98.79688 7.6e-4,54.65054 -44.13833,98.7941 -98.78711,98.80078 -17.30495,-0.0318 -34.2968,-4.60664 -49.27734,-13.26953 l -2.69141,-1.55664 -43.73437,11.71875 11.73242,-43.78711 -1.55664,-2.69336 c -8.65831,-14.96368 -13.23825,-31.93471 -13.2832,-49.22266 v -0.008 c 0.0102,-54.64497 44.14963,-98.77866 98.79687,-98.7793 z m -0.6543,17.66993 c -10.71428,0 -18.92913,1.42773 -23.21484,6.42773 -8.57143,10 -42.14258,61.42969 -42.14258,61.42969 7.14286,21.42857 -2.14313,104.28515 37.14258,94.28515 39.28571,-10 92.14341,-30.71456 95.71484,-42.85742 3.57142,-12.14286 18.57003,-57.14202 10.71289,-76.42773 -7.85714,-19.28572 -11.42857,-39.28628 -40,-40.71485 -14.28571,-0.71428 -27.4986,-2.14258 -38.21289,-2.14257 z"
             id="path452" />
          <path
             style="opacity:1;fill:#0066ff;fill-opacity:1;stroke:none;stroke-width:1;stroke-linecap:square;stroke-linejoin:miter;stroke-miterlimit:4;stroke-dasharray:none;stroke-opacity:1"
             d="m 498.86928,218.62089 a 106.2991,106.2991 0 0 0 -106.29786,106.29786 106.2991,106.2991 0 0 0 14.29174,52.96926 l -14.29174,53.33131 53.2796,-14.27811 A 106.2991,106.2991 0 0 0 498.86928,431.21932 106.2991,106.2991 0 0 0 605.16986,324.91875 106.2991,106.2991 0 0 0 498.86928,218.62089 Z m 11.27551,49.4712 a 35.741607,35.741607 0 0 1 35.74295,35.74023 35.741607,35.741607 0 0 1 -16.96769,30.36381 l -19.10465,-33.0915 -12.28273,21.27155 h -17.89054 a 35.741607,35.741607 0 0 1 -5.23758,-18.54386 35.741607,35.741607 0 0 1 35.74024,-35.74023 z m -41.58216,47.67723 19.03116,32.96355 12.28272,-21.27155 h 18.23353 a 35.741607,35.741607 0 0 1 5.2267,18.54388 35.741607,35.741607 0 0 1 -35.74295,35.74295 35.741607,35.741607 0 0 1 -35.74024,-35.74295 35.741607,35.741607 0 0 1 16.70908,-30.23588 z"
             id="path454"
             inkscape:connector-curvature="0"
             inkscape:export-xdpi="300"
             inkscape:export-ydpi="300" />
        </g>
        <text
           xml:space="preserve"
           style="font-style:normal;font-variant:normal;font-weight:normal;font-stretch:normal;font-size:5.44412041px;line-height:3.4572289px;font-family:Roboto;-inkscape-font-specification:Roboto;font-variant-ligatures:normal;font-variant-position:normal;font-variant-caps:normal;font-variant-numeric:normal;font-variant-alternates:normal;font-feature-settings:normal;text-indent:0;text-align:start;text-decoration:none;text-decoration-line:none;text-decoration-style:solid;text-decoration-color:#000000;letter-spacing:normal;word-spacing:normal;text-transform:none;writing-mode:lr-tb;direction:ltr;text-orientation:mixed;dominant-baseline:auto;baseline-shift:baseline;text-anchor:start;white-space:normal;shape-padding:0;opacity:1;vector-effect:none;fill:#ffffff;fill-opacity:1;fill-rule:nonzero;stroke:none;stroke-width:0.72338217;stroke-linecap:butt;stroke-linejoin:miter;stroke-miterlimit:4;stroke-dasharray:none;stroke-dashoffset:0;stroke-opacity:1;paint-order:stroke markers fill"
           x="89.244476"
           y="20.56395"
           id="text460"><tspan
             sodipodi:role="line"
             id="tspan458"
             x="89.244476"
             y="20.56395"
             style="font-style:normal;font-variant:normal;font-weight:normal;font-stretch:normal;font-family:Roboto;-inkscape-font-specification:Roboto;fill:#ffffff;fill-opacity:1;stroke-width:0.72338217">NGOBREL</tspan></text>
      </g>
    </g>
    <text
       id="text527"
       y="11.308794"
       x="77.573059"
       style="font-style:normal;font-variant:normal;font-weight:normal;font-stretch:normal;font-size:7.78694963px;line-height:4.94501686px;font-family:Roboto;-inkscape-font-specification:Roboto;font-variant-ligatures:normal;font-variant-position:normal;font-variant-caps:normal;font-variant-numeric:normal;font-variant-alternates:normal;font-feature-settings:normal;text-indent:0;text-align:start;text-decoration:none;text-decoration-line:none;text-decoration-style:solid;text-decoration-color:#000000;letter-spacing:normal;word-spacing:normal;text-transform:none;writing-mode:lr-tb;direction:ltr;text-orientation:mixed;dominant-baseline:auto;baseline-shift:baseline;text-anchor:start;white-space:normal;shape-padding:0;opacity:1;vector-effect:none;fill:#333333;fill-opacity:1;fill-rule:nonzero;stroke:none;stroke-width:1.03468335;stroke-linecap:butt;stroke-linejoin:miter;stroke-miterlimit:4;stroke-dasharray:none;stroke-dashoffset:0;stroke-opacity:1;paint-order:stroke markers fill"
       xml:space="preserve"><tspan
         style="fill:#333333;stroke:none;stroke-width:1.03468335"
         y="11.308794"
         x="77.573059"
         id="tspan525"
         sodipodi:role="line">Ukuran 70x60</tspan></text>
    <g
       id="ngobrel-light"
       transform="translate(-32.427559,21.823435)"
       inkscape:label="#g488"
       inkscape:export-xdpi="149.86002"
       inkscape:export-ydpi="149.86002">
      <path
         sodipodi:type="star"
         style="opacity:1;vector-effect:none;fill:#f2f2f2;fill-opacity:1;fill-rule:nonzero;stroke:#999999;stroke-width:0.50258407;stroke-linecap:butt;stroke-linejoin:miter;stroke-miterlimit:4;stroke-dasharray:none;stroke-dashoffset:0;stroke-opacity:1;paint-order:stroke markers fill"
         id="path450"
         sodipodi:sides="6"
         sodipodi:cx="102.78433"
         sodipodi:cy="109.83755"
         sodipodi:r1="35"
         sodipodi:r2="17.499998"
         sodipodi:arg1="0.52359878"
         sodipodi:arg2="1.0471976"
         inkscape:flatsided="true"
         inkscape:rounded="0"
         inkscape:randomized="0"
         d="m 133.09522,127.33755 -30.31089,17.5 -30.310887,-17.5 0,-35.000003 30.310887,-17.5 30.31089,17.5 z"
         inkscape:transform-center-y="-8.7203766"
         transform="matrix(0.98974332,0,0,1,0.7433372,0)" />
      <g
         id="g479"
         transform="matrix(0.99739066,0,0,0.99739066,-0.03597339,109.7014)">
        <g
           style="stroke:none"
           id="g473"
           transform="matrix(0.13003596,0,0,0.13003596,38.115168,-47.788854)">
          <path
             id="path469"
             d="M 498.86914,211.12109 C 436.1095,211.12183 385.073,262.15833 385.07227,324.91797 v 0.01 0.01 c 0.0474,18.79886 4.90397,37.20805 13.82031,53.71875 l -16.92774,63.16992 63.1211,-16.91601 c 16.52722,8.91956 34.95449,13.77404 53.76953,13.80859 h 0.008 0.006 c 62.7619,8.7e-4 113.80165,-51.03888 113.80078,-113.80078 -7.3e-4,-62.76077 -51.04001,-113.79775 -113.80078,-113.79688 z m 0,15 c 54.65416,-7.6e-4 98.80014,44.14272 98.80078,98.79688 7.6e-4,54.65054 -44.13833,98.7941 -98.78711,98.80078 -17.30495,-0.0318 -34.2968,-4.60664 -49.27734,-13.26953 l -2.69141,-1.55664 -43.73437,11.71875 11.73242,-43.78711 -1.55664,-2.69336 c -8.65831,-14.96368 -13.23825,-31.93471 -13.2832,-49.22266 v -0.008 c 0.0102,-54.64497 44.14963,-98.77866 98.79687,-98.7793 z m -0.6543,17.66993 c -10.71428,0 -18.92913,1.42773 -23.21484,6.42773 -8.57143,10 -42.14258,61.42969 -42.14258,61.42969 7.14286,21.42857 -2.14313,104.28515 37.14258,94.28515 39.28571,-10 92.14341,-30.71456 95.71484,-42.85742 3.57142,-12.14286 18.57003,-57.14202 10.71289,-76.42773 -7.85714,-19.28572 -11.42857,-39.28628 -40,-40.71485 -14.28571,-0.71428 -27.4986,-2.14258 -38.21289,-2.14257 z"
             style="color:#000000;font-style:normal;font-variant:normal;font-weight:normal;font-stretch:normal;font-size:medium;line-height:normal;font-family:sans-serif;text-indent:0;text-align:start;text-decoration:none;text-decoration-line:none;text-decoration-style:solid;text-decoration-color:#000000;letter-spacing:normal;word-spacing:normal;text-transform:none;writing-mode:lr-tb;direction:ltr;baseline-shift:baseline;text-anchor:start;white-space:normal;clip-rule:nonzero;display:inline;overflow:visible;visibility:visible;opacity:1;isolation:auto;mix-blend-mode:normal;color-interpolation:sRGB;color-interpolation-filters:linearRGB;solid-color:#000000;solid-opacity:1;fill:#ffffff;fill-opacity:1;fill-rule:nonzero;stroke:#e6e6e6;stroke-width:0.5;stroke-linecap:square;stroke-linejoin:miter;stroke-miterlimit:4;stroke-dasharray:none;stroke-dashoffset:0;stroke-opacity:1;color-rendering:auto;image-rendering:auto;shape-rendering:auto;text-rendering:auto;enable-background:accumulate"
             inkscape:connector-curvature="0" />
          <path
             inkscape:export-ydpi="300"
             inkscape:export-xdpi="300"
             inkscape:connector-curvature="0"
             id="path471"
             d="m 498.86928,218.62089 a 106.2991,106.2991 0 0 0 -106.29786,106.29786 106.2991,106.2991 0 0 0 14.29174,52.96926 l -14.29174,53.33131 53.2796,-14.27811 A 106.2991,106.2991 0 0 0 498.86928,431.21932 106.2991,106.2991 0 0 0 605.16986,324.91875 106.2991,106.2991 0 0 0 498.86928,218.62089 Z m 11.27551,49.4712 a 35.741607,35.741607 0 0 1 35.74295,35.74023 35.741607,35.741607 0 0 1 -16.96769,30.36381 l -19.10465,-33.0915 -12.28273,21.27155 h -17.89054 a 35.741607,35.741607 0 0 1 -5.23758,-18.54386 35.741607,35.741607 0 0 1 35.74024,-35.74023 z m -41.58216,47.67723 19.03116,32.96355 12.28272,-21.27155 h 18.23353 a 35.741607,35.741607 0 0 1 5.2267,18.54388 35.741607,35.741607 0 0 1 -35.74295,35.74295 35.741607,35.741607 0 0 1 -35.74024,-35.74295 35.741607,35.741607 0 0 1 16.70908,-30.23588 z"
             style="opacity:1;fill:#0066ff;fill-opacity:1;stroke:none;stroke-width:1;stroke-linecap:square;stroke-linejoin:miter;stroke-miterlimit:4;stroke-dasharray:none;stroke-opacity:1" />
        </g>
        <text
           id="text477"
           y="20.56395"
           x="89.244476"
           style="font-style:normal;font-variant:normal;font-weight:normal;font-stretch:normal;font-size:5.44412041px;line-height:3.4572289px;font-family:Roboto;-inkscape-font-specification:Roboto;font-variant-ligatures:normal;font-variant-position:normal;font-variant-caps:normal;font-variant-numeric:normal;font-variant-alternates:normal;font-feature-settings:normal;text-indent:0;text-align:start;text-decoration:none;text-decoration-line:none;text-decoration-style:solid;text-decoration-color:#000000;letter-spacing:normal;word-spacing:normal;text-transform:none;writing-mode:lr-tb;direction:ltr;text-orientation:mixed;dominant-baseline:auto;baseline-shift:baseline;text-anchor:start;white-space:normal;shape-padding:0;opacity:1;vector-effect:none;fill:#0066ff;fill-opacity:1;fill-rule:nonzero;stroke:none;stroke-width:0.72338217;stroke-linecap:butt;stroke-linejoin:miter;stroke-miterlimit:4;stroke-dasharray:none;stroke-dashoffset:0;stroke-opacity:1;paint-order:stroke markers fill"
           xml:space="preserve"><tspan
             style="font-style:normal;font-variant:normal;font-weight:normal;font-stretch:normal;font-family:Roboto;-inkscape-font-specification:Roboto;fill:#0066ff;fill-opacity:1;stroke-width:0.72338217"
             y="20.56395"
             x="89.244476"
             id="tspan475"
             sodipodi:role="line">NGOBREL</tspan></text>
      </g>
    </g>
  </g>
</svg>
